<svg version="1.1" id="Layer_1" xmlns="http://www.w3.org/2000/svg" xmlns:xlink="http://www.w3.org/1999/xlink" x="0px" y="0px"
	 width="100%" viewBox="0 0 500 500" enable-background="new 0 0 500 500" xml:space="preserve">
<path fill="#000000" opacity="1.000000" stroke="none" 
	d="
M331.000000,501.000000 
	C220.666687,501.000000 110.833389,501.000000 1.000059,501.000000 
	C1.000039,334.333405 1.000039,167.666794 1.000020,1.000148 
	C167.666565,1.000099 334.333130,1.000099 500.999756,1.000049 
	C500.999847,167.666519 500.999847,334.333038 500.999939,500.999786 
	C444.500000,501.000000 388.000000,501.000000 331.000000,501.000000 
M285.502472,383.860260 
	C285.678772,383.848816 285.855042,383.837341 286.848419,383.882599 
	C294.565002,381.876526 302.281586,379.870422 310.752136,377.767731 
	C316.166962,376.191223 321.581787,374.614716 327.806549,373.041046 
	C331.212982,372.059174 334.619385,371.077301 338.786804,369.971649 
	C339.821136,368.548065 341.655426,367.179474 341.757751,365.691772 
	C342.346588,357.131134 342.525299,348.542328 342.930725,339.180328 
	C342.905914,338.131805 342.881073,337.083313 343.154053,335.207489 
	C343.233856,334.925507 343.313690,334.643494 343.914917,333.972443 
	C352.359467,332.298248 352.296051,332.296112 352.579712,323.831329 
	C352.900513,314.258606 353.350281,304.690247 354.447510,294.788086 
	C357.613007,293.659546 360.778503,292.531006 364.748871,291.452637 
	C366.501282,291.006744 368.253693,290.560822 370.821838,290.055725 
	C377.205048,288.329346 383.588257,286.602966 390.773865,284.901306 
	C391.837860,284.825531 392.901886,284.749725 394.592926,284.578339 
	C395.747101,284.089233 396.901306,283.600128 398.796082,283.086945 
	C399.526703,282.966522 400.257324,282.846069 401.641418,282.750031 
	C402.310486,282.248016 402.979553,281.746002 404.411102,281.373108 
	C407.180817,281.468872 408.754608,280.434143 408.704895,277.360565 
	C408.643585,273.572906 408.825317,269.781311 409.263123,265.245087 
	C410.456970,248.227951 411.723480,231.214996 412.704773,214.185623 
	C412.782074,212.844131 410.875214,211.388321 409.309204,209.632401 
	C405.188385,208.217209 401.067596,206.802002 396.238159,205.167953 
	C394.817291,204.804611 393.396423,204.441269 391.571167,203.509293 
	C389.351990,202.804428 387.132812,202.099564 384.406891,201.163818 
	C384.224915,201.127274 384.042908,201.090744 383.607391,200.455750 
	C382.383942,200.133377 381.160522,199.811005 379.292938,199.108551 
	C376.503784,198.188660 373.714630,197.268768 370.502655,195.754410 
	C367.589966,194.582291 364.491058,193.718094 361.839355,192.114410 
	C360.410156,191.250061 359.082916,189.201263 358.878540,187.542831 
	C358.476013,184.276215 358.807861,180.905121 358.976746,177.584396 
	C359.946442,158.512054 360.999573,139.443695 361.854156,120.366356 
	C361.907684,119.170967 360.518036,117.910934 359.404785,116.152306 
	C356.826599,115.117477 354.291962,113.952934 351.662750,113.070107 
	C339.783539,109.081375 327.912109,105.062065 315.955139,101.317940 
	C313.221069,100.461815 310.026031,99.953987 307.269287,100.477249 
	C290.061005,103.743538 272.933289,107.432213 255.739395,110.778000 
	C251.738815,111.556480 247.210052,112.785126 243.570572,111.679436 
	C231.136017,107.901733 219.021378,103.083130 206.717773,98.856438 
	C201.550980,97.081490 197.371933,93.098862 190.528458,95.780411 
	C182.030807,99.110138 172.634354,100.175072 163.600922,102.099998 
	C155.048767,103.922356 146.464020,105.591827 137.312057,107.232895 
	C134.024933,107.052666 133.080582,108.725807 133.305908,111.808624 
	C133.818695,118.823837 134.125427,125.854111 133.767990,133.230042 
	C129.480057,134.422867 125.192108,135.615692 120.093895,136.809586 
	C114.826035,136.815826 114.563957,140.004501 115.399849,144.604858 
	C115.705429,145.363983 116.011009,146.123093 116.231194,147.824036 
	C116.383820,152.209412 116.536446,156.594788 116.427589,161.877686 
	C116.701523,166.554138 116.975456,171.230606 117.224609,176.750504 
	C117.511253,179.177780 117.797897,181.605072 117.705429,184.485123 
	C117.549248,185.048111 117.393066,185.611099 116.488487,186.437225 
	C109.810158,188.067520 103.139900,189.731842 96.451286,191.318787 
	C89.442497,192.981689 82.416084,194.570282 74.563065,196.147293 
	C73.765419,197.526566 72.297012,198.906631 72.298637,200.284958 
	C72.303139,204.088562 73.051064,207.883820 73.276291,211.695892 
	C74.306847,229.138824 75.205399,246.589890 76.350273,264.024963 
	C76.433914,265.298767 78.097610,266.468811 79.427711,268.288330 
	C83.628220,270.011475 87.828728,271.734650 92.763832,273.824982 
	C95.800819,275.195557 98.817451,276.613617 101.879295,277.926147 
	C107.182762,280.199615 112.514244,282.407745 118.477509,284.938904 
	C119.755859,286.591248 122.062714,288.187439 122.156494,289.904480 
	C123.344017,311.647339 124.176186,333.409332 125.242630,355.159454 
	C125.317230,356.680847 126.525421,358.146698 127.693413,360.006866 
	C141.800858,366.271881 155.908295,372.536896 170.455200,378.992371 
	C170.455200,378.992371 170.929855,378.929016 171.550949,379.172455 
	C178.010040,377.377502 184.469131,375.582550 191.622910,373.816071 
	C192.072876,373.718475 192.522842,373.620880 193.604172,373.655823 
	C194.367020,373.335602 195.129868,373.015381 196.608292,372.718048 
	C197.061768,372.583588 197.515228,372.449127 198.629669,372.460785 
	C200.067413,371.914520 201.505157,371.368256 203.734528,370.839050 
	C205.472214,370.323975 207.209885,369.808868 209.650040,369.428009 
	C211.625031,368.708099 213.600037,367.988190 216.336578,367.411041 
	C217.573257,367.097626 218.809937,366.784241 220.711273,366.587402 
	C221.792297,366.294281 222.873322,366.001160 224.661453,365.739349 
	C226.443008,365.172150 228.224564,364.604950 230.596603,364.271729 
	C231.427002,364.212494 232.257416,364.153290 233.861389,364.406342 
	C234.389328,364.580231 234.917267,364.754089 235.529755,365.425415 
	C235.988724,365.548950 236.447708,365.672485 237.568451,366.111511 
	C243.345093,368.544067 249.112976,370.997650 254.900391,373.404297 
	C264.160339,377.254944 273.433197,381.074432 283.345917,384.872955 
	C283.888123,384.532074 284.430359,384.191223 285.502472,383.860260 
z"/>
<path fill="#B2B8B7" opacity="1.000000" stroke="none" 
	d="
M120.904167,136.808517 
	C125.192108,135.615692 129.480057,134.422867 134.535828,133.104889 
	C150.097473,130.246140 164.891296,127.512566 179.685120,124.778992 
	C179.649567,124.178932 179.614029,123.578873 179.578476,122.978813 
	C174.192291,120.976112 168.800186,118.989120 163.421265,116.967087 
	C154.907410,113.766571 146.402374,110.542587 137.893616,107.328537 
	C146.464020,105.591827 155.048767,103.922356 163.600922,102.099998 
	C172.634354,100.175072 182.030807,99.110138 190.528458,95.780411 
	C197.371933,93.098862 201.550980,97.081490 206.717773,98.856438 
	C219.021378,103.083130 231.136017,107.901733 243.570572,111.679436 
	C247.210052,112.785126 251.738815,111.556480 255.739395,110.778000 
	C272.933289,107.432213 290.061005,103.743538 307.269287,100.477249 
	C310.026031,99.953987 313.221069,100.461815 315.955139,101.317940 
	C327.912109,105.062065 339.783539,109.081375 351.662750,113.070107 
	C354.291962,113.952934 356.826599,115.117477 359.373352,116.497742 
	C359.341949,116.843185 358.937775,117.113480 358.511047,117.043884 
	C356.397766,117.232315 354.711212,117.490341 352.722839,117.647324 
	C351.733276,117.918007 351.045471,118.289742 349.961975,118.598045 
	C347.735504,118.903130 345.904724,119.271645 343.778198,119.552795 
	C342.843140,119.925232 342.203857,120.385033 341.427185,120.807968 
	C341.289795,120.771111 341.053467,120.929550 340.601501,120.864349 
	C338.119080,121.196869 336.088623,121.594589 333.808380,121.890396 
	C333.096771,122.009308 332.634949,122.230141 331.736267,122.402374 
	C329.866760,122.559189 328.434113,122.764595 326.682373,122.857986 
	C324.962372,123.268539 323.561493,123.791122 321.738220,124.244270 
	C320.204895,124.363945 319.093903,124.553047 317.660522,124.655380 
	C315.913940,125.140411 314.489746,125.712227 312.652710,126.226807 
	C311.171051,126.395393 310.102142,126.621201 308.670502,126.737770 
	C305.231323,127.312500 302.154907,127.996460 299.078491,128.680420 
	C299.066284,128.991577 299.054077,129.302734 299.041870,129.613892 
	C304.038391,131.239365 309.034912,132.864822 314.343231,134.628357 
	C315.325623,134.873047 315.996216,134.979691 316.819336,135.323730 
	C317.623901,135.729996 318.276001,135.898880 319.321350,136.261642 
	C320.578125,136.596207 321.441589,136.736862 322.404510,137.134583 
	C323.297791,137.617050 324.091614,137.842453 325.222290,138.248001 
	C326.062195,138.477188 326.565247,138.526215 327.249451,138.808029 
	C327.965759,139.247009 328.500946,139.453186 329.292053,139.899048 
	C330.447052,140.279846 331.346161,140.420975 332.396454,140.777908 
	C333.037750,141.115448 333.527893,141.237183 334.340393,141.561279 
	C336.788849,142.376923 338.914948,142.990189 341.354065,143.736908 
	C342.117767,143.886505 342.568451,143.902649 343.176514,144.178131 
	C344.224701,144.759705 345.115540,145.081940 346.316040,145.600586 
	C347.658051,146.414200 348.690338,147.031403 349.384552,147.907166 
	C345.998810,149.282715 342.951172,150.399750 339.489502,151.530609 
	C337.724792,151.780472 336.374084,152.016495 334.736572,152.228058 
	C333.961884,152.459183 333.474030,152.714767 332.574402,152.951065 
	C326.078369,154.218811 319.994080,155.505844 313.551483,156.784363 
	C312.044037,157.063522 310.894928,157.351181 309.380859,157.623932 
	C307.655396,158.029175 306.294861,158.449341 304.537170,158.848633 
	C303.099213,159.006882 302.058380,159.186005 300.694824,159.320953 
	C299.463593,159.673035 298.555084,160.069305 297.639587,160.496658 
	C297.632629,160.527740 297.696045,160.533691 297.311523,160.481140 
	C294.946899,160.983307 292.966766,161.538040 290.626465,162.031250 
	C289.808105,162.098312 289.349976,162.226898 288.728577,162.236938 
	C288.565369,162.118393 288.230225,161.893723 287.878601,161.774704 
	C280.881042,159.229309 274.266205,156.712875 267.580353,154.401932 
	C260.923492,152.101013 254.195358,150.006378 247.251923,147.560150 
	C246.326752,147.140640 245.648102,146.982300 244.724945,146.657639 
	C243.724213,146.294479 242.968002,146.097610 242.022980,145.640854 
	C241.237640,145.205658 240.641113,145.030380 239.759644,144.673737 
	C238.817596,144.346085 238.160507,144.199799 237.379089,143.788147 
	C236.519897,143.322647 235.785049,143.122498 234.793091,142.717957 
	C233.683609,142.403610 232.831238,142.293671 231.564484,142.080521 
	C220.440613,144.080627 209.731110,146.183960 198.678619,148.227356 
	C196.878067,148.747864 195.420532,149.328339 193.624146,149.870026 
	C192.845093,149.935333 192.404892,150.039444 191.569366,150.048080 
	C188.118256,150.691010 185.062454,151.429413 181.668121,152.086090 
	C180.491776,152.285980 179.653976,152.567612 178.502411,152.848572 
	C177.441589,153.188690 176.694519,153.529480 175.521179,153.830902 
	C172.368515,154.285492 169.642090,154.779465 166.630646,155.219421 
	C165.957642,155.166000 165.569672,155.166595 164.808105,155.068756 
	C153.185287,150.851028 141.877060,146.882828 130.721771,142.523285 
	C127.237007,141.161407 124.165077,138.743179 120.904167,136.808517 
z"/>
<path fill="#818179" opacity="1.000000" stroke="none" 
	d="
M127.206482,359.638367 
	C126.525421,358.146698 125.317230,356.680847 125.242630,355.159454 
	C124.176186,333.409332 123.344017,311.647339 122.156494,289.904480 
	C122.062714,288.187439 119.755859,286.591248 118.165916,284.382996 
	C116.627220,282.769012 115.310890,281.795959 114.198471,280.628601 
	C113.114220,279.490753 111.910507,278.263000 111.441391,276.848450 
	C111.266869,276.322235 112.893242,274.628967 113.925682,274.368408 
	C119.103775,273.061401 124.411156,272.252960 129.563721,270.863617 
	C132.625687,270.038025 135.455841,268.383636 138.449936,267.261139 
	C139.765167,266.768066 141.220718,266.615234 142.627075,266.404877 
	C151.414215,265.090546 160.206100,263.807953 168.992462,262.488586 
	C169.282211,262.445068 169.502487,262.038544 169.801102,261.938812 
	C172.783173,260.942749 175.709793,259.565735 178.776337,259.078613 
	C187.295471,257.725311 195.882187,256.801636 204.418884,255.549423 
	C205.533264,255.385971 206.511139,254.292023 207.207001,253.848907 
	C206.377640,251.688644 205.765182,250.093384 205.372879,248.524918 
	C205.593018,248.551697 205.934509,248.834930 206.171234,249.076385 
	C207.034103,249.558304 207.660233,249.798737 208.632675,250.041336 
	C212.655609,251.490356 216.332245,252.937241 220.011063,254.826172 
	C220.003082,265.175140 219.992920,275.082062 219.614471,284.969849 
	C214.237442,281.748505 208.847427,280.067932 202.858490,281.013367 
	C196.233551,282.059265 189.605774,283.102661 183.016830,284.346405 
	C181.860138,284.564697 180.400284,285.533295 179.920563,286.551270 
	C178.316422,289.955353 175.488892,289.800964 172.415924,290.078644 
	C165.550415,290.699005 157.939880,290.172119 152.092056,293.063660 
	C145.576889,296.285156 139.421097,297.064514 132.620102,297.060730 
	C127.273384,297.057770 126.066864,298.535919 126.007057,304.037811 
	C125.981796,306.361053 126.011818,308.684937 126.014839,311.475220 
	C126.336212,317.295441 126.659447,322.648956 126.985626,328.470856 
	C127.001282,336.295959 127.013985,343.652740 127.022217,351.477600 
	C127.080650,354.509918 127.143562,357.074127 127.206482,359.638367 
z"/>
<path fill="#03E2E4" opacity="1.000000" stroke="none" 
	d="
M235.445206,364.927979 
	C234.917267,364.754089 234.389328,364.580231 233.411743,364.051758 
	C232.651108,363.415009 232.340118,363.132874 232.019806,362.391541 
	C232.003448,353.107666 231.909088,344.281799 232.033066,335.458984 
	C232.081512,332.010742 232.620499,328.569397 233.290863,324.966156 
	C239.833008,323.191162 246.062973,321.718536 252.190109,319.899475 
	C255.360519,318.958160 258.348572,317.402527 261.836823,316.167358 
	C264.505066,316.064972 266.803711,316.162109 268.996399,315.726288 
	C274.320648,314.668121 279.595673,313.362213 284.919891,312.119934 
	C284.949249,312.083771 284.858368,312.104279 284.825195,312.535919 
	C284.749939,321.262817 284.707794,329.558075 284.523376,338.311310 
	C284.329865,347.209595 284.278656,355.649872 283.976593,364.413116 
	C283.384003,371.459747 283.042297,378.183411 282.700623,384.907104 
	C273.433197,381.074432 264.160339,377.254944 254.900391,373.404297 
	C249.112976,370.997650 243.345093,368.544067 237.120911,365.757111 
	C236.263962,365.244476 235.854584,365.086243 235.445206,364.927979 
z"/>
<path fill="#5F5A55" opacity="1.000000" stroke="none" 
	d="
M313.909821,156.792877 
	C319.994080,155.505844 326.078369,154.218811 332.775696,153.161652 
	C333.925873,153.594360 334.462921,153.797180 334.926605,154.335846 
	C332.879395,157.039825 331.489746,159.208679 334.019989,162.350647 
	C336.831543,165.841904 340.216370,169.513107 341.258514,173.635147 
	C342.766693,179.600494 345.270752,179.431976 349.570129,177.339600 
	C349.776672,178.767090 349.879517,179.872772 349.791443,181.407715 
	C349.536469,185.609116 349.472382,189.381256 349.272339,193.162781 
	C349.136322,193.172165 348.942932,192.980011 348.594757,193.152161 
	C347.847626,194.176559 347.158997,195.008102 347.096344,195.884399 
	C346.663971,201.931107 346.199646,207.985199 346.125580,214.041550 
	C346.105469,215.686508 347.389801,217.347427 348.142761,219.419678 
	C347.489105,223.925110 349.533295,224.649094 352.988953,223.876465 
	C356.300446,223.136032 359.644897,222.542953 363.241577,222.120239 
	C365.867218,222.355362 368.226166,222.355362 370.585114,222.355362 
	C370.172607,222.603683 369.760132,222.852020 369.347626,223.100342 
	C372.782166,229.112061 376.200043,235.133392 379.665924,241.126999 
	C380.322388,242.262192 381.254242,243.237762 381.914673,244.371078 
	C386.593964,252.400894 391.731750,260.220642 395.653748,268.607544 
	C397.302673,272.133636 403.463959,276.361969 396.843384,281.128693 
	C396.796173,281.162720 397.631989,282.423218 398.055481,283.111023 
	C396.901306,283.600128 395.747101,284.089233 394.152771,284.348114 
	C392.465546,284.370789 391.218506,284.623688 389.971466,284.876587 
	C383.588257,286.602966 377.205048,288.329346 370.519592,289.745636 
	C372.989929,287.838928 375.762543,286.242310 378.790375,284.498749 
	C376.627197,280.197174 374.467712,275.851868 372.261139,271.530579 
	C370.341248,267.770721 368.494812,263.963318 366.353333,260.331757 
	C365.551483,258.971954 363.862213,258.167572 362.835602,256.900879 
	C361.152985,254.824646 359.501129,252.682541 358.158813,250.380188 
	C355.544800,245.896790 353.141418,241.290039 350.679901,236.718704 
	C350.074158,235.593765 349.153107,234.426041 349.105164,233.248322 
	C348.826080,226.394745 344.809814,221.696182 340.512787,216.941269 
	C338.261230,214.449799 336.767120,211.263260 335.003479,208.346771 
	C334.333069,207.238174 334.003021,205.914444 333.284332,204.845840 
	C328.169312,197.240524 322.971771,189.690674 317.871033,182.075912 
	C317.348511,181.295837 317.115875,180.217621 317.044189,179.255722 
	C316.386749,170.438446 308.738800,165.797775 304.934326,158.869507 
	C306.294861,158.449341 307.655396,158.029175 309.624084,157.881256 
	C311.577606,158.478806 312.922943,158.804092 314.268311,159.129379 
	C314.148834,158.350540 314.029327,157.571716 313.909821,156.792877 
z"/>
<path fill="#363131" opacity="1.000000" stroke="none" 
	d="
M338.025818,370.095428 
	C334.619385,371.077301 331.212982,372.059174 327.335388,372.697083 
	C324.048096,368.693207 320.869476,365.252808 318.492035,361.327271 
	C313.687500,353.394135 309.490082,345.094055 304.710388,337.144867 
	C301.327026,331.517975 297.240479,326.317902 293.751221,320.749695 
	C288.770538,312.801392 284.138824,304.634766 279.180389,296.672058 
	C276.584656,292.503632 273.437836,288.678314 270.841675,284.510101 
	C265.456299,275.863678 260.201050,267.133698 255.041824,258.350250 
	C253.069534,254.992462 251.482132,251.394119 255.394501,247.932617 
	C257.132904,247.176346 258.544159,246.424515 260.219177,245.474243 
	C260.666290,245.154160 260.849640,245.032547 261.361877,245.024597 
	C262.147278,245.217972 262.603851,245.297668 263.342163,245.519272 
	C265.091431,245.014969 266.558929,244.368759 268.227234,243.603668 
	C268.428070,243.484818 268.893341,243.446625 268.893341,243.446625 
	C268.893341,243.446625 269.311157,243.654861 269.767456,243.747253 
	C271.148438,243.895172 272.073090,243.950714 272.905487,244.329254 
	C271.142242,246.734863 271.329437,248.368790 272.950867,250.756470 
	C276.544647,256.048584 279.405945,261.831604 282.731750,267.313843 
	C287.007568,274.362000 291.396210,281.343262 295.827179,288.295349 
	C301.058350,296.502899 306.610840,304.514008 311.617249,312.854401 
	C318.133179,323.709595 323.608795,335.244263 330.749512,345.651245 
	C336.004272,353.309631 339.038239,360.914581 338.025818,370.095428 
z"/>
<path fill="#939590" opacity="1.000000" stroke="none" 
	d="
M79.026711,267.687073 
	C78.097610,266.468811 76.433914,265.298767 76.350273,264.024963 
	C75.205399,246.589890 74.306847,229.138824 73.276291,211.695892 
	C73.051064,207.883820 72.303139,204.088562 72.298637,200.284958 
	C72.297012,198.906631 73.765419,197.526566 75.239342,196.347992 
	C89.916985,202.320999 103.918350,208.093292 119.155998,214.375275 
	C118.457703,204.113968 117.847298,195.144028 117.236893,186.174088 
	C117.393066,185.611099 117.549248,185.048111 118.138222,184.488556 
	C121.385895,189.140625 125.081154,191.089554 130.601456,189.111603 
	C134.396454,187.751831 138.365463,186.624969 142.349686,186.100510 
	C149.809753,185.118515 157.337296,184.649323 164.872070,184.310394 
	C164.893188,185.113327 164.879013,185.572708 164.525574,186.057632 
	C160.205765,188.560867 162.835205,190.230942 165.014954,192.139923 
	C165.274658,192.534134 165.448227,192.737854 165.740433,193.386475 
	C165.859192,201.212204 165.882660,208.573135 165.545746,215.930542 
	C164.026749,215.349457 162.752457,214.927551 161.729706,214.167267 
	C157.389587,210.940994 155.963959,211.167923 152.498520,215.366943 
	C151.614746,216.437790 150.176651,217.486115 148.860504,217.690659 
	C142.845779,218.625412 136.800659,219.509216 130.733292,219.912460 
	C126.262894,220.209564 121.829674,219.570923 118.431229,223.704987 
	C117.535614,224.794464 115.099495,224.756119 113.338524,224.969818 
	C107.932816,225.625824 102.469032,225.902939 97.110207,226.812622 
	C93.148331,227.485168 89.374489,229.302261 85.409630,229.910919 
	C80.551987,230.656647 78.071930,232.946198 78.008858,238.031677 
	C77.971741,241.024185 78.014320,244.017670 78.020309,247.462311 
	C78.344513,251.941422 78.669456,255.968918 78.993065,260.397583 
	C79.003723,261.868500 79.015724,262.938232 79.021927,264.375793 
	C79.019653,265.724762 79.023178,266.705933 79.026711,267.687073 
z"/>
<path fill="#3E3838" opacity="1.000000" stroke="none" 
	d="
M338.406311,370.033539 
	C339.038239,360.914581 336.004272,353.309631 330.749512,345.651245 
	C323.608795,335.244263 318.133179,323.709595 311.617249,312.854401 
	C306.610840,304.514008 301.058350,296.502899 295.827179,288.295349 
	C291.396210,281.343262 287.007568,274.362000 282.731750,267.313843 
	C279.405945,261.831604 276.544647,256.048584 272.950867,250.756470 
	C271.329437,248.368790 271.142242,246.734863 273.205048,244.187103 
	C274.734833,243.106400 275.872772,242.490845 277.237000,241.758301 
	C277.789185,241.694122 278.115143,241.746964 278.779785,241.817993 
	C279.729340,241.596008 280.340179,241.355835 281.317993,241.047241 
	C283.142029,240.307739 284.599091,239.636658 286.274231,238.627747 
	C286.681183,234.861084 286.870026,231.432220 287.425781,228.100693 
	C288.516113,229.384415 289.974243,230.660278 289.842468,231.742538 
	C289.049408,238.255447 290.216553,244.049088 294.920868,248.871399 
	C295.030884,248.984177 295.060272,249.172058 295.141968,249.316620 
	C300.420929,258.661469 305.555573,268.091736 311.019257,277.327362 
	C317.658173,288.549683 324.287811,299.798645 331.505951,310.647156 
	C334.583649,315.272766 339.141724,318.913422 343.134705,323.445007 
	C343.292755,327.379364 343.343109,330.870392 343.393494,334.361450 
	C343.313690,334.643494 343.233856,334.925507 342.712128,335.728516 
	C342.461151,337.487396 342.652069,338.725220 342.843018,339.963043 
	C342.525299,348.542328 342.346588,357.131134 341.757751,365.691772 
	C341.655426,367.179474 339.821136,368.548065 338.406311,370.033539 
z"/>
<path fill="#85867E" opacity="1.000000" stroke="none" 
	d="
M79.027725,264.007965 
	C79.015724,262.938232 79.003723,261.868500 79.460724,260.398743 
	C84.891457,259.813812 91.138794,261.451630 94.539215,259.053162 
	C101.016907,254.484192 108.619026,255.518509 115.408875,252.952103 
	C121.737946,250.559875 129.532440,249.995956 136.640259,248.255280 
	C140.597107,247.286285 145.151581,248.258926 148.845184,246.828781 
	C154.615051,244.594696 161.613541,246.277115 166.432007,241.226746 
	C166.695847,240.950211 167.436523,240.925674 167.877762,241.052780 
	C172.210907,242.300842 175.920044,240.453354 179.893372,238.652847 
	C180.412949,238.686539 180.705383,238.825012 181.053131,239.220032 
	C181.737122,239.647507 182.365799,239.818420 183.361267,239.989685 
	C190.869614,242.826065 198.011185,245.662109 205.152740,248.498138 
	C205.765182,250.093384 206.377640,251.688644 207.207001,253.848907 
	C206.511139,254.292023 205.533264,255.385971 204.418884,255.549423 
	C195.882187,256.801636 187.295471,257.725311 178.776337,259.078613 
	C175.709793,259.565735 172.783173,260.942749 169.801102,261.938812 
	C169.502487,262.038544 169.282211,262.445068 168.992462,262.488586 
	C160.206100,263.807953 151.414215,265.090546 142.627075,266.404877 
	C141.220718,266.615234 139.765167,266.768066 138.449936,267.261139 
	C135.455841,268.383636 132.625687,270.038025 129.563721,270.863617 
	C124.411156,272.252960 119.103775,273.061401 113.925682,274.368408 
	C112.893242,274.628967 111.266869,276.322235 111.441391,276.848450 
	C111.910507,278.263000 113.114220,279.490753 114.198471,280.628601 
	C115.310890,281.795959 116.627220,282.769012 117.844147,284.235199 
	C112.514244,282.407745 107.182762,280.199615 101.879295,277.926147 
	C98.817451,276.613617 95.800819,275.195557 92.359619,273.311859 
	C87.646179,269.868469 83.336952,266.938232 79.027725,264.007965 
z"/>
<path fill="#57524E" opacity="1.000000" stroke="none" 
	d="
M304.537170,158.848633 
	C308.738800,165.797775 316.386749,170.438446 317.044189,179.255722 
	C317.115875,180.217621 317.348511,181.295837 317.871033,182.075912 
	C322.971771,189.690674 328.169312,197.240524 333.284332,204.845840 
	C334.003021,205.914444 334.333069,207.238174 335.003479,208.346771 
	C336.767120,211.263260 338.261230,214.449799 340.512787,216.941269 
	C344.809814,221.696182 348.826080,226.394745 349.105164,233.248322 
	C349.153107,234.426041 350.074158,235.593765 350.679901,236.718704 
	C353.141418,241.290039 355.544800,245.896790 358.158813,250.380188 
	C359.501129,252.682541 361.152985,254.824646 362.835602,256.900879 
	C363.862213,258.167572 365.551483,258.971954 366.353333,260.331757 
	C368.494812,263.963318 370.341248,267.770721 372.261139,271.530579 
	C374.467712,275.851868 376.627197,280.197174 378.790375,284.498749 
	C375.762543,286.242310 372.989929,287.838928 370.111725,289.775208 
	C368.253693,290.560822 366.501282,291.006744 364.417633,291.005859 
	C365.569214,286.044525 364.763885,282.344543 361.196930,278.825989 
	C358.922272,276.582184 357.618774,273.322937 356.006378,270.447968 
	C354.550385,267.851929 353.413055,265.071228 351.881256,262.524689 
	C345.118439,251.281738 338.317383,240.060867 331.414917,228.903275 
	C328.826447,224.719086 325.831360,220.788086 323.189575,216.634842 
	C319.775360,211.267227 316.526733,205.794220 313.211823,200.363541 
	C311.188110,197.048248 309.033783,193.802872 307.189270,190.390366 
	C304.642029,185.677689 302.343231,180.831116 299.915771,176.053207 
	C298.134766,172.547775 295.916168,169.187912 294.744965,165.492996 
	C294.358643,164.274170 296.636414,162.210861 297.696045,160.533691 
	C297.696045,160.533691 297.632629,160.527740 297.970764,160.625122 
	C299.211823,160.270035 300.114685,159.817566 301.017578,159.365112 
	C302.058380,159.186005 303.099213,159.006882 304.537170,158.848633 
z"/>
<path fill="#2F2B2A" opacity="1.000000" stroke="none" 
	d="
M255.067383,247.937073 
	C251.482132,251.394119 253.069534,254.992462 255.041824,258.350250 
	C260.201050,267.133698 265.456299,275.863678 270.841675,284.510101 
	C273.437836,288.678314 276.584656,292.503632 279.180389,296.672058 
	C284.138824,304.634766 288.770538,312.801392 293.751221,320.749695 
	C297.240479,326.317902 301.327026,331.517975 304.710388,337.144867 
	C309.490082,345.094055 313.687500,353.394135 318.492035,361.327271 
	C320.869476,365.252808 324.048096,368.693207 326.930420,372.695679 
	C321.581787,374.614716 316.166962,376.191223 310.376556,377.414185 
	C308.833679,374.336548 307.749939,371.572388 306.469666,368.902466 
	C305.619904,367.130371 304.561096,365.444824 303.465546,363.807739 
	C302.063416,361.712555 300.549957,359.690491 299.048706,357.663391 
	C297.056732,354.973633 293.754333,352.506531 293.303955,349.590210 
	C292.542023,344.656464 290.297089,341.805359 286.046448,339.594482 
	C286.036957,338.480652 286.036621,337.737671 286.262177,336.650452 
	C286.646881,329.212219 286.888580,322.117950 286.868073,315.024475 
	C286.865265,314.049164 285.560425,313.077576 284.858368,312.104279 
	C284.858368,312.104279 284.949249,312.083771 284.835419,311.790161 
	C280.851654,311.396088 276.936584,310.895050 273.126251,311.323975 
	C270.162170,311.657654 268.868347,310.677399 267.869659,308.179382 
	C266.277771,304.197601 264.919586,300.028870 262.692780,296.413330 
	C257.546478,288.057556 251.921005,279.997620 246.528687,271.792145 
	C244.988358,269.448212 243.860504,266.778381 242.060928,264.669830 
	C236.471634,258.120819 236.367264,256.468536 242.304016,251.002792 
	C243.015427,250.966644 243.422516,250.957306 244.224243,250.962830 
	C246.071915,250.365494 247.524979,249.753281 249.286102,249.056549 
	C250.710739,248.406708 251.827271,247.841385 253.288971,247.173767 
	C254.110886,247.093735 254.587677,247.115952 255.057770,247.337921 
	C255.051071,247.537689 255.067383,247.937073 255.067383,247.937073 
z"/>
<path fill="#979C97" opacity="1.000000" stroke="none" 
	d="
M164.836777,183.966812 
	C157.337296,184.649323 149.809753,185.118515 142.349686,186.100510 
	C138.365463,186.624969 134.396454,187.751831 130.601456,189.111603 
	C125.081154,191.089554 121.385895,189.140625 118.327774,184.262161 
	C117.797897,181.605072 117.511253,179.177780 117.427994,175.975952 
	C117.317276,170.460983 117.003174,165.720566 116.689072,160.980164 
	C116.536446,156.594788 116.383820,152.209412 116.421387,147.137024 
	C116.253235,145.626053 115.894882,144.802063 115.536530,143.978088 
	C114.563957,140.004501 114.826035,136.815826 120.499031,136.809052 
	C124.165077,138.743179 127.237007,141.161407 130.721771,142.523285 
	C141.877060,146.882828 153.185287,150.851028 164.735748,155.519135 
	C165.051926,163.921814 165.066849,171.775665 165.050476,180.071869 
	C164.958374,181.665085 164.897568,182.815948 164.836777,183.966812 
z"/>
<path fill="#504C49" opacity="1.000000" stroke="none" 
	d="
M297.311523,160.481140 
	C296.636414,162.210861 294.358643,164.274170 294.744965,165.492996 
	C295.916168,169.187912 298.134766,172.547775 299.915771,176.053207 
	C302.343231,180.831116 304.642029,185.677689 307.189270,190.390366 
	C309.033783,193.802872 311.188110,197.048248 313.211823,200.363541 
	C316.526733,205.794220 319.775360,211.267227 323.189575,216.634842 
	C325.831360,220.788086 328.826447,224.719086 331.414917,228.903275 
	C338.317383,240.060867 345.118439,251.281738 351.881256,262.524689 
	C353.413055,265.071228 354.550385,267.851929 356.006378,270.447968 
	C357.618774,273.322937 358.922272,276.582184 361.196930,278.825989 
	C364.763885,282.344543 365.569214,286.044525 364.015198,290.980774 
	C360.778503,292.531006 357.613007,293.659546 353.896362,294.930542 
	C353.089722,294.942352 352.929688,294.737213 352.893921,294.010925 
	C352.535034,291.498444 352.585693,289.209930 351.671906,287.411407 
	C349.514191,283.164520 346.845520,279.180542 344.478058,275.036224 
	C340.594574,268.238007 336.789520,261.395020 332.944641,254.574692 
	C331.172455,251.431046 329.469849,248.244064 327.587219,245.167603 
	C322.278900,236.493088 316.829468,227.904556 311.559113,219.207306 
	C307.363831,212.284180 303.684631,205.022995 299.134918,198.349152 
	C296.243652,194.108017 291.070374,191.333633 291.501404,185.144775 
	C291.525513,184.798874 290.529602,184.381927 290.006531,183.529755 
	C290.331940,176.071884 290.659302,169.082336 290.986664,162.092789 
	C292.966766,161.538040 294.946899,160.983307 297.311523,160.481140 
z"/>
<path fill="#04BDE2" opacity="1.000000" stroke="none" 
	d="
M232.936066,325.124908 
	C232.620499,328.569397 232.081512,332.010742 232.033066,335.458984 
	C231.909088,344.281799 232.003448,353.107666 231.728516,362.474304 
	C230.966415,363.356750 230.486267,363.697266 230.006119,364.037781 
	C228.224564,364.604950 226.443008,365.172150 224.052185,365.557190 
	C222.638275,365.268677 221.833618,365.162354 221.016968,364.801788 
	C224.099426,361.736267 223.835327,358.520599 221.233337,355.875458 
	C212.643906,347.143585 203.974213,338.478119 195.036575,330.106110 
	C189.819427,325.219116 184.194885,320.718750 178.424835,316.493408 
	C176.022034,314.733887 172.763168,314.143402 169.787628,312.601166 
	C170.069489,310.359222 167.878372,307.313293 172.071686,307.494080 
	C172.719421,307.886108 173.308319,308.054077 174.263794,308.272919 
	C178.087143,309.549042 181.543900,310.774292 185.271698,312.216339 
	C193.709976,315.881042 201.856750,319.378632 210.053619,322.754639 
	C213.809616,324.301575 217.664078,325.609497 221.920654,327.147766 
	C225.890320,326.554840 229.413193,325.839874 232.936066,325.124908 
z"/>
<path fill="#05F2E7" opacity="1.000000" stroke="none" 
	d="
M362.974854,221.885132 
	C359.644897,222.542953 356.300446,223.136032 352.988953,223.876465 
	C349.533295,224.649094 347.489105,223.925110 348.280487,218.997818 
	C348.548248,209.764877 348.745605,201.372437 348.942932,192.980011 
	C348.942932,192.980011 349.136322,193.172165 349.532867,193.118256 
	C350.317841,192.723297 350.706268,192.382248 351.468048,192.006470 
	C354.512238,192.304062 357.240692,192.397827 359.840179,193.025604 
	C363.584442,193.929840 367.234955,195.222168 370.925476,196.348877 
	C373.714630,197.268768 376.503784,198.188660 379.745728,199.591400 
	C381.419312,200.400909 382.640106,200.727554 383.860931,201.054214 
	C384.042908,201.090744 384.224915,201.127274 384.787292,201.572845 
	C387.437012,202.680573 389.706268,203.379257 391.975555,204.077942 
	C393.396423,204.441269 394.817291,204.804611 396.704224,205.588531 
	C399.447174,207.910019 401.724030,209.810898 403.649200,211.834839 
	C401.841919,212.230362 400.386322,212.502823 398.739746,212.620773 
	C397.727295,212.856323 396.905823,213.246384 395.690674,213.741364 
	C391.832520,214.803314 388.368042,215.760330 384.489960,216.707108 
	C377.042542,218.426270 370.008698,220.155701 362.974854,221.885132 
z"/>
<path fill="#6E6962" opacity="1.000000" stroke="none" 
	d="
M127.449944,359.822632 
	C127.143562,357.074127 127.080650,354.509918 127.374008,351.398834 
	C136.082901,347.946655 144.380478,344.863739 152.822784,342.247894 
	C155.248383,341.496338 158.091675,342.090515 160.743469,342.071838 
	C163.504425,342.052399 166.265411,342.037994 169.021179,342.479492 
	C169.350464,346.931976 169.684921,350.926453 170.107635,355.370850 
	C170.308990,362.945770 170.422089,370.070801 170.427032,377.377502 
	C170.217834,377.973419 170.116791,378.387634 170.015747,378.801880 
	C155.908295,372.536896 141.800858,366.271881 127.449944,359.822632 
z"/>
<path fill="#02B6DC" opacity="1.000000" stroke="none" 
	d="
M169.893555,313.021362 
	C172.763168,314.143402 176.022034,314.733887 178.424835,316.493408 
	C184.194885,320.718750 189.819427,325.219116 195.036575,330.106110 
	C203.974213,338.478119 212.643906,347.143585 221.233337,355.875458 
	C223.835327,358.520599 224.099426,361.736267 220.899231,364.981720 
	C220.544556,365.767517 220.295578,366.119171 220.046600,366.470825 
	C218.809937,366.784241 217.573257,367.097626 215.565903,367.266479 
	C212.846008,367.845856 210.896790,368.569824 208.947571,369.293762 
	C207.209885,369.808868 205.472214,370.323975 203.140106,370.645935 
	C202.028503,370.309662 201.511322,370.166534 201.107788,369.697327 
	C207.384583,365.585785 207.447968,365.528839 202.469040,359.987701 
	C199.401566,356.573914 196.145691,353.325348 192.901886,350.074951 
	C187.674515,344.837006 182.527756,339.502258 177.026047,334.566040 
	C175.659164,333.339630 173.062073,333.484375 170.902344,332.821472 
	C170.591629,332.412415 170.369553,332.228333 170.022552,331.634796 
	C169.941849,327.794220 169.946594,324.410706 170.058990,320.915771 
	C170.318069,320.497131 170.251251,320.232819 169.799591,319.726990 
	C169.343872,318.617859 169.054764,317.793152 168.981689,316.699646 
	C169.429657,315.294342 169.661606,314.157867 169.893555,313.021362 
z"/>
<path fill="#64615B" opacity="1.000000" stroke="none" 
	d="
M363.241577,222.120239 
	C370.008698,220.155701 377.042542,218.426270 384.603882,217.008804 
	C384.471527,218.712204 383.811676,220.103668 383.215332,221.361206 
	C385.321014,224.211487 387.720123,227.138214 389.761230,230.296310 
	C392.900116,235.153015 394.982849,240.989090 398.974121,244.930878 
	C405.507721,251.383453 406.049866,258.931732 406.139771,267.143890 
	C406.871033,266.838806 407.886536,266.415100 408.902039,265.991425 
	C408.825317,269.781311 408.643585,273.572906 408.704895,277.360565 
	C408.754608,280.434143 407.180817,281.468872 403.686035,281.294006 
	C402.303314,281.718475 401.645630,282.222076 400.987946,282.725647 
	C400.257324,282.846069 399.526703,282.966522 398.425781,283.098999 
	C397.631989,282.423218 396.796173,281.162720 396.843384,281.128693 
	C403.463959,276.361969 397.302673,272.133636 395.653748,268.607544 
	C391.731750,260.220642 386.593964,252.400894 381.914673,244.371078 
	C381.254242,243.237762 380.322388,242.262192 379.665924,241.126999 
	C376.200043,235.133392 372.782166,229.112061 369.347626,223.100342 
	C369.760132,222.852020 370.172607,222.603683 370.585114,222.355362 
	C368.226166,222.355362 365.867218,222.355362 363.241577,222.120239 
z"/>
<path fill="#6E6962" opacity="1.000000" stroke="none" 
	d="
M409.082581,265.618256 
	C407.886536,266.415100 406.871033,266.838806 406.139771,267.143890 
	C406.049866,258.931732 405.507721,251.383453 398.974121,244.930878 
	C394.982849,240.989090 392.900116,235.153015 389.761230,230.296310 
	C387.720123,227.138214 385.321014,224.211487 383.215332,221.361206 
	C383.811676,220.103668 384.471527,218.712204 385.017456,217.019058 
	C388.368042,215.760330 391.832520,214.803314 396.000854,213.834152 
	C397.446686,213.473114 398.188721,213.124207 398.930725,212.775299 
	C400.386322,212.502823 401.841919,212.230362 403.992340,211.908752 
	C406.421600,211.234970 408.156036,210.610291 409.890472,209.985626 
	C410.875214,211.388321 412.782074,212.844131 412.704773,214.185623 
	C411.723480,231.214996 410.456970,248.227951 409.082581,265.618256 
z"/>
<path fill="#02ACD5" opacity="1.000000" stroke="none" 
	d="
M171.030457,332.998840 
	C173.062073,333.484375 175.659164,333.339630 177.026047,334.566040 
	C182.527756,339.502258 187.674515,344.837006 192.901886,350.074951 
	C196.145691,353.325348 199.401566,356.573914 202.469040,359.987701 
	C207.447968,365.528839 207.384583,365.585785 200.906555,369.889465 
	C199.717346,371.043335 198.843033,371.679016 197.968704,372.314697 
	C197.515228,372.449127 197.061768,372.583588 196.034027,372.552582 
	C194.630783,372.765839 193.801788,373.144562 192.972809,373.523254 
	C192.522842,373.620880 192.072876,373.718475 191.010529,373.602478 
	C186.428665,368.708191 182.471420,364.016937 178.470169,359.363586 
	C178.080719,358.910645 177.419510,358.691376 176.735184,358.272186 
	C175.676102,359.404846 174.750946,360.394287 172.841202,362.436707 
	C172.483658,358.819000 172.292694,356.446014 172.004898,354.084808 
	C171.634109,351.042633 171.185745,348.009918 170.703522,344.638885 
	C170.666000,343.623016 170.695786,342.941376 170.989258,341.938538 
	C171.178772,338.744507 171.104614,335.871674 171.030457,332.998840 
z"/>
<path fill="#03E2E4" opacity="1.000000" stroke="none" 
	d="
M137.602844,107.280716 
	C146.402374,110.542587 154.907410,113.766571 163.421265,116.967087 
	C168.800186,118.989120 174.192291,120.976112 179.578476,122.978813 
	C179.614029,123.578873 179.649567,124.178932 179.685120,124.778992 
	C164.891296,127.512566 150.097473,130.246140 134.909760,132.928986 
	C134.125427,125.854111 133.818695,118.823837 133.305908,111.808624 
	C133.080582,108.725807 134.024933,107.052666 137.602844,107.280716 
z"/>
<path fill="#03E3E6" opacity="1.000000" stroke="none" 
	d="
M116.862686,186.305664 
	C117.847298,195.144028 118.457703,204.113968 119.155998,214.375275 
	C103.918350,208.093292 89.916985,202.320999 75.656494,196.370026 
	C82.416084,194.570282 89.442497,192.981689 96.451286,191.318787 
	C103.139900,189.731842 109.810158,188.067520 116.862686,186.305664 
z"/>
<path fill="#282324" opacity="1.000000" stroke="none" 
	d="
M286.055664,339.965332 
	C290.297089,341.805359 292.542023,344.656464 293.303955,349.590210 
	C293.754333,352.506531 297.056732,354.973633 299.048706,357.663391 
	C300.549957,359.690491 302.063416,361.712555 303.465546,363.807739 
	C304.561096,365.444824 305.619904,367.130371 306.469666,368.902466 
	C307.749939,371.572388 308.833679,374.336548 309.999573,377.462524 
	C302.281586,379.870422 294.565002,381.876526 286.433472,383.403839 
	C286.030945,368.605164 286.043304,354.285248 286.055664,339.965332 
z"/>
<path fill="#07C3D3" opacity="1.000000" stroke="none" 
	d="
M370.714050,196.051636 
	C367.234955,195.222168 363.584442,193.929840 359.840179,193.025604 
	C357.240692,192.397827 354.512238,192.304062 351.325989,191.698914 
	C350.534515,187.943542 350.258423,184.460999 349.982361,180.978439 
	C349.879517,179.872772 349.776672,178.767090 349.709564,176.940765 
	C349.918365,174.827148 350.091461,173.434158 350.543518,171.917816 
	C350.927826,170.532532 351.033112,169.270630 351.064575,167.612457 
	C351.064972,166.150116 351.139221,165.084015 351.315186,163.907593 
	C351.549408,163.493988 351.495331,163.224289 351.174011,162.590454 
	C351.260040,159.851212 351.426727,157.509674 351.870148,154.903656 
	C352.420044,153.422150 352.693207,152.205139 353.275085,151.099823 
	C354.447998,152.193192 355.312134,153.174835 356.748932,154.807022 
	C356.748932,150.291321 356.542938,146.712402 356.789734,143.164993 
	C357.394501,134.473419 358.208160,125.796371 358.937775,117.113480 
	C358.937775,117.113480 359.341949,116.843185 359.570892,116.762085 
	C360.518036,117.910934 361.907684,119.170967 361.854156,120.366356 
	C360.999573,139.443695 359.946442,158.512054 358.976746,177.584396 
	C358.807861,180.905121 358.476013,184.276215 358.878540,187.542831 
	C359.082916,189.201263 360.410156,191.250061 361.839355,192.114410 
	C364.491058,193.718094 367.589966,194.582291 370.714050,196.051636 
z"/>
<path fill="#02ACD5" opacity="1.000000" stroke="none" 
	d="
M352.865143,294.457611 
	C352.929688,294.737213 353.089722,294.942352 353.544617,295.096497 
	C353.350281,304.690247 352.900513,314.258606 352.579712,323.831329 
	C352.296051,332.296112 352.359467,332.298248 343.654205,334.166931 
	C343.343109,330.870392 343.292755,327.379364 343.258057,323.025146 
	C343.914825,313.540955 344.555847,304.919922 345.168091,296.248657 
	C345.139252,296.198425 345.037537,296.253784 345.411499,296.267334 
	C346.389435,295.880829 346.993439,295.480774 347.833832,295.188965 
	C348.384186,295.170746 348.698181,295.044250 349.300232,294.951569 
	C350.123444,294.790955 350.658600,294.596527 351.467407,294.473816 
	C352.115753,294.516266 352.490448,294.486938 352.865143,294.457611 
z"/>
<path fill="#05A1C7" opacity="1.000000" stroke="none" 
	d="
M170.770813,344.973114 
	C171.185745,348.009918 171.634109,351.042633 172.004898,354.084808 
	C172.292694,356.446014 172.483658,358.819000 172.841202,362.436707 
	C174.750946,360.394287 175.676102,359.404846 176.735184,358.272186 
	C177.419510,358.691376 178.080719,358.910645 178.470169,359.363586 
	C182.471420,364.016937 186.428665,368.708191 190.663193,373.588226 
	C184.469131,375.582550 178.010040,377.377502 171.233810,378.749847 
	C170.789505,377.950104 170.662338,377.572937 170.535187,377.195801 
	C170.422089,370.070801 170.308990,362.945770 170.271942,355.022675 
	C170.488922,351.140747 170.629868,348.056946 170.770813,344.973114 
M183.060913,373.429047 
	C183.060455,373.803223 183.060013,374.177429 183.059570,374.551605 
	C183.458237,374.441101 183.856888,374.330566 184.255539,374.220062 
	C184.005936,373.919403 183.756332,373.618744 183.060913,373.429047 
z"/>
<path fill="#221E20" opacity="1.000000" stroke="none" 
	d="
M286.046448,339.594482 
	C286.043304,354.285248 286.030945,368.605164 286.024963,383.375488 
	C285.855042,383.837341 285.678772,383.848816 285.243408,383.402527 
	C284.732056,376.659912 284.479767,370.375061 284.227478,364.090179 
	C284.278656,355.649872 284.329865,347.209595 284.683960,338.187561 
	C285.336670,337.402130 285.686462,337.198425 286.036285,336.994720 
	C286.036621,337.737671 286.036957,338.480652 286.046448,339.594482 
z"/>
<path fill="#81827C" opacity="1.000000" stroke="none" 
	d="
M79.021927,264.375793 
	C83.336952,266.938232 87.646179,269.868469 91.992325,273.128265 
	C87.828728,271.734650 83.628220,270.011475 79.227211,267.987701 
	C79.023178,266.705933 79.019653,265.724762 79.021927,264.375793 
z"/>
<path fill="#282324" opacity="1.000000" stroke="none" 
	d="
M283.976593,364.413116 
	C284.479767,370.375061 284.732056,376.659912 284.978455,383.397583 
	C284.430359,384.191223 283.888123,384.532074 283.023254,384.890015 
	C283.042297,378.183411 283.384003,371.459747 283.976593,364.413116 
z"/>
<path fill="#07C3D3" opacity="1.000000" stroke="none" 
	d="
M409.599854,209.809006 
	C408.156036,210.610291 406.421600,211.234970 404.344025,211.785706 
	C401.724030,209.810898 399.447174,207.910019 397.058533,205.697968 
	C401.067596,206.802002 405.188385,208.217209 409.599854,209.809006 
z"/>
<path fill="#939590" opacity="1.000000" stroke="none" 
	d="
M116.558334,161.428925 
	C117.003174,165.720566 117.317276,170.460983 117.440384,175.554230 
	C116.975456,171.230606 116.701523,166.554138 116.558334,161.428925 
z"/>
<path fill="#07C3D3" opacity="1.000000" stroke="none" 
	d="
M391.773376,203.793610 
	C389.706268,203.379257 387.437012,202.680573 385.040680,201.688293 
	C387.132812,202.099564 389.351990,202.804428 391.773376,203.793610 
z"/>
<path fill="#05A1C7" opacity="1.000000" stroke="none" 
	d="
M209.298798,369.360901 
	C210.896790,368.569824 212.846008,367.845856 215.185120,367.195099 
	C213.600037,367.988190 211.625031,368.708099 209.298798,369.360901 
z"/>
<path fill="#05A1C7" opacity="1.000000" stroke="none" 
	d="
M198.299194,372.387756 
	C198.843033,371.679016 199.717346,371.043335 200.792908,370.215515 
	C201.511322,370.166534 202.028503,370.309662 202.744308,370.637390 
	C201.505157,371.368256 200.067413,371.914520 198.299194,372.387756 
z"/>
<path fill="#46413F" opacity="1.000000" stroke="none" 
	d="
M342.886871,339.571686 
	C342.652069,338.725220 342.461151,337.487396 342.563232,336.142181 
	C342.881073,337.083313 342.905914,338.131805 342.886871,339.571686 
z"/>
<path fill="#64615B" opacity="1.000000" stroke="none" 
	d="
M390.372681,284.888977 
	C391.218506,284.623688 392.465546,284.370789 393.839233,284.395935 
	C392.901886,284.749725 391.837860,284.825531 390.372681,284.888977 
z"/>
<path fill="#05A1C7" opacity="1.000000" stroke="none" 
	d="
M193.288483,373.589539 
	C193.801788,373.144562 194.630783,372.765839 195.676239,372.541138 
	C195.129868,373.015381 194.367020,373.335602 193.288483,373.589539 
z"/>
<path fill="#05A1C7" opacity="1.000000" stroke="none" 
	d="
M230.301361,364.154755 
	C230.486267,363.697266 230.966415,363.356750 231.737854,362.933502 
	C232.340118,363.132874 232.651108,363.415009 233.024963,363.895630 
	C232.257416,364.153290 231.427002,364.212494 230.301361,364.154755 
z"/>
<path fill="#07C3D3" opacity="1.000000" stroke="none" 
	d="
M383.734161,200.754974 
	C382.640106,200.727554 381.419312,200.400909 380.067780,199.781433 
	C381.160522,199.811005 382.383942,200.133377 383.734161,200.754974 
z"/>
<path fill="#939590" opacity="1.000000" stroke="none" 
	d="
M115.468185,144.291473 
	C115.894882,144.802063 116.253235,145.626053 116.464088,146.666122 
	C116.011009,146.123093 115.705429,145.363983 115.468185,144.291473 
z"/>
<path fill="#05A1C7" opacity="1.000000" stroke="none" 
	d="
M220.378937,366.529114 
	C220.295578,366.119171 220.544556,365.767517 220.911255,365.235931 
	C221.833618,365.162354 222.638275,365.268677 223.698639,365.541504 
	C222.873322,366.001160 221.792297,366.294281 220.378937,366.529114 
z"/>
<path fill="#5F5A55" opacity="1.000000" stroke="none" 
	d="
M401.314697,282.737854 
	C401.645630,282.222076 402.303314,281.718475 403.304810,281.229431 
	C402.979553,281.746002 402.310486,282.248016 401.314697,282.737854 
z"/>
<path fill="#78766C" opacity="1.000000" stroke="none" 
	d="
M170.427032,377.377502 
	C170.662338,377.572937 170.789505,377.950104 170.923264,378.628113 
	C170.929855,378.929016 170.455200,378.992371 170.235474,378.897125 
	C170.116791,378.387634 170.217834,377.973419 170.427032,377.377502 
z"/>
<path fill="#05A1C7" opacity="1.000000" stroke="none" 
	d="
M235.487488,365.176697 
	C235.854584,365.086243 236.263962,365.244476 236.790024,365.599365 
	C236.447708,365.672485 235.988724,365.548950 235.487488,365.176697 
z"/>
<path fill="#03E3E6" opacity="1.000000" stroke="none" 
	d="
M247.498474,147.821289 
	C254.195358,150.006378 260.923492,152.101013 267.580353,154.401932 
	C274.266205,156.712875 280.881042,159.229309 287.986023,162.038803 
	C288.415588,162.609070 288.386108,162.796234 288.117981,163.377701 
	C287.895569,166.805222 287.911774,169.838455 287.800537,173.226929 
	C287.357361,176.201523 286.905701,178.812958 286.752686,181.441757 
	C286.378754,187.863602 286.143066,194.293472 285.494995,200.971634 
	C285.372894,202.902267 285.607574,204.581375 286.019409,206.681320 
	C286.097870,211.636063 285.999146,216.169998 285.544922,220.990112 
	C284.527161,226.692307 283.864899,232.108292 283.127197,238.141525 
	C275.009705,235.254745 267.407166,232.680420 259.901520,229.849228 
	C250.509720,226.306534 241.197495,222.552795 231.853882,218.696259 
	C231.856842,218.502350 231.820389,218.113800 231.849075,217.830780 
	C231.889709,217.358459 231.901642,217.169189 231.930847,216.583496 
	C231.942932,215.129990 231.937744,214.072922 231.949097,212.548279 
	C231.957047,207.059937 231.948471,202.039154 231.953506,196.548737 
	C231.971039,178.113998 231.974945,160.148865 231.978851,142.183746 
	C232.831238,142.293671 233.683609,142.403610 234.976501,142.933548 
	C236.112457,143.586868 236.807938,143.820190 237.503403,144.053513 
	C238.160507,144.199799 238.817596,144.346085 239.968658,144.906372 
	C241.045670,145.513840 241.628723,145.707291 242.211792,145.900757 
	C242.968002,146.097610 243.724213,146.294479 244.980377,146.899506 
	C246.153061,147.478867 246.825760,147.650085 247.498474,147.821289 
z"/>
<path fill="#46413F" opacity="1.000000" stroke="none" 
	d="
M287.927948,172.871674 
	C287.911774,169.838455 287.895569,166.805222 288.241333,163.301788 
	C288.762268,162.710892 288.858429,162.552185 288.891815,162.355484 
	C289.349976,162.226898 289.808105,162.098312 290.626465,162.031250 
	C290.659302,169.082336 290.331940,176.071884 290.002747,183.998566 
	C290.003113,191.911499 289.628845,198.916565 290.167480,205.850708 
	C290.434265,209.285263 292.019928,212.779419 293.663055,215.902405 
	C295.555878,219.499985 298.324554,222.624527 300.441559,226.118851 
	C305.285370,234.114014 309.894318,242.251328 314.729218,250.252014 
	C319.576141,258.272614 324.610901,266.179443 329.507599,274.170258 
	C333.032990,279.923187 336.325470,285.824860 340.020355,291.464600 
	C341.277252,293.383057 343.445221,294.704590 345.196899,296.298859 
	C344.555847,304.919922 343.914825,313.540955 343.150391,322.581848 
	C339.141724,318.913422 334.583649,315.272766 331.505951,310.647156 
	C324.287811,299.798645 317.658173,288.549683 311.019257,277.327362 
	C305.555573,268.091736 300.420929,258.661469 295.141968,249.316620 
	C295.060272,249.172058 295.030884,248.984177 294.920868,248.871399 
	C290.216553,244.049088 289.049408,238.255447 289.842468,231.742538 
	C289.974243,230.660278 288.516113,229.384415 287.410278,227.673706 
	C287.346649,223.538742 287.807159,219.933945 287.956940,216.316284 
	C288.359924,206.580887 288.787079,196.841583 288.885803,187.100601 
	C288.933868,182.361343 288.269714,177.614883 287.927948,172.871674 
z"/>
<path fill="#02C4E7" opacity="1.000000" stroke="none" 
	d="
M231.564484,142.080521 
	C231.974945,160.148865 231.971039,178.113998 231.566666,196.542297 
	C228.192261,195.159637 224.567200,193.886719 222.353989,191.371506 
	C211.137238,178.624023 200.287048,165.553986 189.246841,152.524353 
	C189.800018,152.039780 190.882339,151.091660 191.964676,150.143555 
	C192.404892,150.039444 192.845093,149.935333 193.877197,150.094666 
	C195.986603,149.667862 197.504105,148.977585 199.021606,148.287308 
	C209.731110,146.183960 220.440613,144.080627 231.564484,142.080521 
z"/>
<path fill="#04BDE2" opacity="1.000000" stroke="none" 
	d="
M191.569366,150.048080 
	C190.882339,151.091660 189.800018,152.039780 189.246841,152.524353 
	C200.287048,165.553986 211.137238,178.624023 222.353989,191.371506 
	C224.567200,193.886719 228.192261,195.159637 231.553040,197.011932 
	C231.948471,202.039154 231.957047,207.059937 231.574310,212.548370 
	C224.575287,215.443939 221.914047,209.724442 218.948486,206.261673 
	C212.240005,198.428436 206.374695,189.875214 200.120239,181.649979 
	C197.725067,178.500107 195.331070,175.333633 192.713654,172.371674 
	C187.202942,166.135574 181.544968,160.029633 175.947433,153.870270 
	C176.694519,153.529480 177.441589,153.188690 178.735535,153.053436 
	C180.190475,152.895264 181.098557,152.531540 182.006653,152.167831 
	C185.062454,151.429413 188.118256,150.691010 191.569366,150.048080 
z"/>
<path fill="#02B6DC" opacity="1.000000" stroke="none" 
	d="
M175.521179,153.830902 
	C181.544968,160.029633 187.202942,166.135574 192.713654,172.371674 
	C195.331070,175.333633 197.725067,178.500107 200.120239,181.649979 
	C206.374695,189.875214 212.240005,198.428436 218.948486,206.261673 
	C221.914047,209.724442 224.575287,215.443939 231.557770,213.015930 
	C231.937744,214.072922 231.942932,215.129990 231.608704,216.610931 
	C230.511963,217.663834 229.754623,218.292862 228.628204,218.960144 
	C227.520599,219.071198 226.782074,219.144028 225.751648,219.217545 
	C224.993393,219.531464 224.527084,219.844666 223.716858,220.200623 
	C222.247192,220.495453 221.121460,220.747513 219.991501,220.628387 
	C217.632385,216.988968 215.491882,213.537079 212.880417,210.488647 
	C206.346451,202.861496 199.446793,195.545273 192.982666,187.861328 
	C187.266586,181.066650 182.199112,173.714539 176.314926,167.078827 
	C173.945282,164.406540 170.162918,162.986969 167.011536,160.585739 
	C166.971603,158.540619 166.943634,156.907028 166.915680,155.273438 
	C169.642090,154.779465 172.368515,154.285492 175.521179,153.830902 
z"/>
<path fill="#0998C0" opacity="1.000000" stroke="none" 
	d="
M166.630646,155.219421 
	C166.943634,156.907028 166.971603,158.540619 167.002075,161.054443 
	C167.038452,168.598251 167.072327,175.261795 167.086090,182.358643 
	C167.379333,187.427338 167.785919,192.059067 167.967941,196.699615 
	C168.063400,199.133240 168.654297,200.358887 171.367874,201.227951 
	C173.974854,202.062851 176.380234,204.252731 178.292374,206.372147 
	C181.681168,210.128296 184.469986,214.422195 187.814545,218.222946 
	C190.289963,221.036011 193.248657,223.423782 195.650284,226.181671 
	C186.185242,228.262726 177.061966,230.163132 167.709076,231.745239 
	C167.267258,229.287704 167.055054,227.148453 166.926636,224.592560 
	C166.642334,221.428619 166.274231,218.681335 165.906143,215.934067 
	C165.882660,208.573135 165.859192,201.212204 165.849655,192.944641 
	C165.602997,187.901855 165.342392,183.765671 165.081787,179.629501 
	C165.066849,171.775665 165.051926,163.921814 165.109344,155.617584 
	C165.569672,155.166595 165.957642,155.166000 166.630646,155.219421 
z"/>
<path fill="#02C4E7" opacity="1.000000" stroke="none" 
	d="
M358.511047,117.043884 
	C358.208160,125.796371 357.394501,134.473419 356.789734,143.164993 
	C356.542938,146.712402 356.748932,150.291321 356.748932,154.807022 
	C355.312134,153.174835 354.447998,152.193192 353.257874,150.784515 
	C352.384888,149.633575 351.837921,148.909683 351.023438,148.104767 
	C350.411469,147.898712 350.067078,147.773666 349.722656,147.648621 
	C348.690338,147.031403 347.658051,146.414200 346.227844,145.355896 
	C344.893005,144.582809 343.956055,144.250809 343.019104,143.918793 
	C342.568451,143.902649 342.117767,143.886505 341.345825,143.334320 
	C341.034210,135.508713 341.043854,128.219131 341.053467,120.929550 
	C341.053467,120.929550 341.289795,120.771111 341.733856,120.809540 
	C342.809937,120.445366 343.441956,120.042763 344.073944,119.640160 
	C345.904724,119.271645 347.735504,118.903130 350.173279,118.659302 
	C351.528412,118.438774 352.276520,118.093567 353.024658,117.748367 
	C354.711212,117.490341 356.397766,117.232315 358.511047,117.043884 
z"/>
<path fill="#64615B" opacity="1.000000" stroke="none" 
	d="
M349.384552,147.907166 
	C350.067078,147.773666 350.411469,147.898712 350.933472,148.486633 
	C351.271881,151.022369 351.432648,153.095245 351.593414,155.168121 
	C351.426727,157.509674 351.260040,159.851212 351.096344,162.845337 
	C351.137390,163.671249 351.175415,163.844589 351.213470,164.017929 
	C351.139221,165.084015 351.064972,166.150116 350.834290,167.886047 
	C350.540039,169.717667 350.402283,170.879410 350.264526,172.041168 
	C350.091461,173.434158 349.918365,174.827148 349.605835,176.618958 
	C345.270752,179.431976 342.766693,179.600494 341.258514,173.635147 
	C340.216370,169.513107 336.831543,165.841904 334.019989,162.350647 
	C331.489746,159.208679 332.879395,157.039825 335.326660,154.334778 
	C337.167938,153.170837 338.535736,152.343811 339.903534,151.516785 
	C342.951172,150.399750 345.998810,149.282715 349.384552,147.907166 
z"/>
<path fill="#02B6DC" opacity="1.000000" stroke="none" 
	d="
M340.601501,120.864349 
	C341.043854,128.219131 341.034210,135.508713 341.032806,143.200867 
	C338.914948,142.990189 336.788849,142.376923 334.256042,141.391144 
	C333.314667,140.866440 332.779999,140.714264 332.245300,140.562103 
	C331.346161,140.420975 330.447052,140.279846 329.187866,139.650024 
	C328.246857,138.786728 327.665894,138.412125 327.087036,137.647614 
	C328.510864,132.808487 330.109924,128.356995 326.936829,123.801025 
	C326.979736,123.413818 326.994934,123.192215 327.001434,122.970001 
	C328.434113,122.764595 329.866760,122.559189 331.901886,122.484055 
	C333.022278,122.406982 333.540192,122.199638 334.058136,121.992302 
	C336.088623,121.594589 338.119080,121.196869 340.601501,120.864349 
z"/>
<path fill="#02ACD5" opacity="1.000000" stroke="none" 
	d="
M326.917786,123.967239 
	C330.109924,128.356995 328.510864,132.808487 327.073761,137.781509 
	C327.058441,138.305313 327.068329,138.575241 327.068329,138.575241 
	C326.565247,138.526215 326.062195,138.477188 325.079224,138.059311 
	C323.834564,137.419495 323.069824,137.148514 322.305054,136.877533 
	C321.441589,136.736862 320.578125,136.596207 319.160706,136.069016 
	C317.960083,135.483780 317.313446,135.285049 316.666809,135.086334 
	C315.996216,134.979691 315.325623,134.873047 314.195160,134.345963 
	C310.989227,132.490829 308.243195,131.056137 305.574768,129.662018 
	C306.669312,128.771133 307.851288,127.809074 309.033264,126.847015 
	C310.102142,126.621201 311.171051,126.395393 312.908569,126.378395 
	C315.045776,125.972198 316.514343,125.357185 317.982910,124.742165 
	C319.093903,124.553047 320.204895,124.363945 322.000946,124.390015 
	C324.096588,124.392540 325.507202,124.179893 326.917786,123.967239 
z"/>
<path fill="#0998C0" opacity="1.000000" stroke="none" 
	d="
M308.670502,126.737778 
	C307.851288,127.809074 306.669312,128.771133 305.574768,129.662018 
	C308.243195,131.056137 310.989227,132.490829 313.883362,134.207916 
	C309.034912,132.864822 304.038391,131.239365 299.041870,129.613892 
	C299.054077,129.302734 299.066284,128.991577 299.078491,128.680420 
	C302.154907,127.996460 305.231323,127.312500 308.670502,126.737778 
z"/>
<path fill="#0998C0" opacity="1.000000" stroke="none" 
	d="
M326.936829,123.801025 
	C325.507202,124.179893 324.096588,124.392540 322.423279,124.459442 
	C323.561493,123.791122 324.962372,123.268539 326.682373,122.857986 
	C326.994934,123.192215 326.979736,123.413818 326.936829,123.801025 
z"/>
<path fill="#57524E" opacity="1.000000" stroke="none" 
	d="
M313.551483,156.784363 
	C314.029327,157.571716 314.148834,158.350540 314.268311,159.129379 
	C312.922943,158.804092 311.577606,158.478806 309.989014,157.896179 
	C310.894928,157.351181 312.044037,157.063522 313.551483,156.784363 
z"/>
<path fill="#04BDE2" opacity="1.000000" stroke="none" 
	d="
M198.678619,148.227356 
	C197.504105,148.977585 195.986603,149.667862 194.216034,150.133484 
	C195.420532,149.328339 196.878067,148.747864 198.678619,148.227356 
z"/>
<path fill="#0998C0" opacity="1.000000" stroke="none" 
	d="
M317.660522,124.655388 
	C316.514343,125.357185 315.045776,125.972198 313.321350,126.435623 
	C314.489746,125.712227 315.913940,125.140411 317.660522,124.655388 
z"/>
<path fill="#5F5A55" opacity="1.000000" stroke="none" 
	d="
M339.489502,151.530609 
	C338.535736,152.343811 337.167938,153.170837 335.406128,153.707474 
	C335.015900,153.028885 335.019653,152.640701 335.023376,152.252518 
	C336.374084,152.016495 337.724792,151.780472 339.489502,151.530609 
z"/>
<path fill="#02B6DC" opacity="1.000000" stroke="none" 
	d="
M343.176514,144.178131 
	C343.956055,144.250809 344.893005,144.582809 345.918152,145.159485 
	C345.115540,145.081940 344.224701,144.759705 343.176514,144.178131 
z"/>
<path fill="#02B6DC" opacity="1.000000" stroke="none" 
	d="
M181.668121,152.086090 
	C181.098557,152.531540 180.190475,152.895264 179.049271,153.054108 
	C179.653976,152.567612 180.491776,152.285980 181.668121,152.086090 
z"/>
<path fill="#0998C0" opacity="1.000000" stroke="none" 
	d="
M352.722839,117.647324 
	C352.276520,118.093567 351.528412,118.438774 350.568970,118.722733 
	C351.045471,118.289742 351.733276,117.918007 352.722839,117.647324 
z"/>
<path fill="#5F5A55" opacity="1.000000" stroke="none" 
	d="
M300.694824,159.320938 
	C300.114685,159.817566 299.211823,160.270035 297.977753,160.594025 
	C298.555084,160.069305 299.463593,159.673035 300.694824,159.320938 
z"/>
<path fill="#0998C0" opacity="1.000000" stroke="none" 
	d="
M322.404510,137.134583 
	C323.069824,137.148514 323.834564,137.419495 324.742371,137.879150 
	C324.091614,137.842453 323.297791,137.617050 322.404510,137.134583 
z"/>
<path fill="#0998C0" opacity="1.000000" stroke="none" 
	d="
M332.396454,140.777908 
	C332.779999,140.714264 333.314667,140.866440 333.933716,141.188751 
	C333.527893,141.237183 333.037750,141.115448 332.396454,140.777908 
z"/>
<path fill="#0998C0" opacity="1.000000" stroke="none" 
	d="
M327.249451,138.808029 
	C327.068329,138.575241 327.058441,138.305313 327.071716,138.171417 
	C327.665894,138.412125 328.246857,138.786728 328.931976,139.410355 
	C328.500946,139.453186 327.965759,139.247009 327.249451,138.808029 
z"/>
<path fill="#64615B" opacity="1.000000" stroke="none" 
	d="
M334.736572,152.228058 
	C335.019653,152.640701 335.015900,153.028885 335.006104,153.708527 
	C334.462921,153.797180 333.925873,153.594360 333.187469,153.180939 
	C333.474030,152.714767 333.961884,152.459183 334.736572,152.228058 
z"/>
<path fill="#0998C0" opacity="1.000000" stroke="none" 
	d="
M316.819336,135.323730 
	C317.313446,135.285049 317.960083,135.483780 318.767395,135.875122 
	C318.276001,135.898880 317.623901,135.729996 316.819336,135.323730 
z"/>
<path fill="#0998C0" opacity="1.000000" stroke="none" 
	d="
M343.778198,119.552795 
	C343.441956,120.042763 342.809937,120.445366 341.871246,120.846405 
	C342.203857,120.385033 342.843140,119.925232 343.778198,119.552795 
z"/>
<path fill="#0998C0" opacity="1.000000" stroke="none" 
	d="
M333.808380,121.890388 
	C333.540192,122.199638 333.022278,122.406982 332.338715,122.532646 
	C332.634949,122.230141 333.096771,122.009308 333.808380,121.890388 
z"/>
<path fill="#02C4E7" opacity="1.000000" stroke="none" 
	d="
M237.379089,143.788147 
	C236.807938,143.820190 236.112457,143.586868 235.233597,143.137939 
	C235.785049,143.122498 236.519897,143.322647 237.379089,143.788147 
z"/>
<path fill="#02C4E7" opacity="1.000000" stroke="none" 
	d="
M247.251923,147.560150 
	C246.825760,147.650085 246.153061,147.478867 245.224915,147.065796 
	C245.648102,146.982300 246.326752,147.140640 247.251923,147.560150 
z"/>
<path fill="#02C4E7" opacity="1.000000" stroke="none" 
	d="
M242.022980,145.640854 
	C241.628723,145.707291 241.045670,145.513840 240.253601,145.087738 
	C240.641113,145.030380 241.237640,145.205658 242.022980,145.640854 
z"/>
<path fill="#57524E" opacity="1.000000" stroke="none" 
	d="
M288.728577,162.236938 
	C288.858429,162.552185 288.762268,162.710892 288.479919,162.907501 
	C288.386108,162.796234 288.415588,162.609070 288.337646,162.157822 
	C288.230225,161.893723 288.565369,162.118393 288.728577,162.236938 
z"/>
<path fill="#05F2E7" opacity="1.000000" stroke="none" 
	d="
M167.938705,232.063553 
	C177.061966,230.163132 186.185242,228.262726 196.047668,226.179855 
	C200.171402,225.258453 203.556000,224.519485 207.281494,223.778488 
	C210.430237,223.227707 213.238052,222.678955 216.236633,222.262177 
	C216.964996,222.015442 217.502609,221.636719 218.365875,221.212708 
	C219.126251,221.111465 219.560989,221.055511 219.995728,220.999573 
	C221.121460,220.747513 222.247192,220.495453 223.909149,220.327606 
	C224.978119,220.013489 225.510849,219.615173 226.043564,219.216858 
	C226.782074,219.144028 227.520599,219.071198 228.978912,218.965439 
	C230.165146,218.896759 230.631561,218.861008 231.285370,218.851334 
	C231.472763,218.877411 231.850922,218.890167 231.850922,218.890167 
	C241.197495,222.552795 250.509720,226.306534 259.901520,229.849228 
	C267.407166,232.680420 275.009705,235.254745 283.127197,238.141525 
	C283.864899,232.108292 284.527161,226.692307 285.663696,221.360489 
	C285.880371,227.252533 285.622742,233.060425 284.945282,238.894226 
	C283.023529,239.377029 281.521637,239.833893 279.853088,240.511002 
	C279.271332,241.087433 278.856232,241.443619 278.441101,241.799805 
	C278.115143,241.746964 277.789185,241.694122 276.919739,241.657806 
	C274.021240,242.334488 271.666199,242.994675 269.311157,243.654861 
	C269.311157,243.654861 268.893341,243.446625 268.893341,243.446625 
	C268.893341,243.446625 268.428070,243.484818 267.972534,243.494659 
	C266.225586,243.738724 264.934174,243.972961 263.291077,244.185410 
	C262.303925,244.412704 261.668457,244.661804 261.033020,244.910919 
	C260.849640,245.032547 260.666290,245.154160 259.911926,245.388916 
	C258.089081,245.727036 256.837189,245.952026 255.176132,246.124344 
	C253.515366,246.359940 252.263779,246.648178 250.730225,247.113281 
	C249.463623,247.738998 248.478973,248.187897 247.177185,248.571228 
	C246.231094,248.631775 245.602158,248.757874 244.722595,248.774811 
	C243.365845,249.214371 242.259750,249.763092 240.749924,250.284454 
	C239.556641,250.403992 238.767075,250.550903 237.659637,250.599655 
	C235.978394,251.115784 234.615036,251.730072 232.822357,252.289032 
	C231.556168,252.404327 230.719330,252.574921 229.534409,252.666458 
	C226.416229,253.176117 223.646133,253.764832 220.657379,254.308914 
	C220.438751,254.264267 220.008865,254.384109 220.008865,254.384109 
	C216.332245,252.937241 212.655609,251.490356 208.449722,249.730835 
	C207.258469,249.223770 206.596497,249.029358 205.934509,248.834930 
	C205.934509,248.834930 205.593018,248.551697 205.372879,248.524918 
	C198.011185,245.662109 190.869614,242.826065 183.186584,239.748444 
	C182.096024,239.325745 181.546906,239.144623 180.997803,238.963501 
	C180.705383,238.825012 180.412949,238.686539 179.644836,238.366394 
	C176.924576,237.175705 174.622543,236.274734 172.454498,235.121796 
	C170.858475,234.273056 169.437622,233.094925 167.938705,232.063553 
z"/>
<path fill="#78766C" opacity="1.000000" stroke="none" 
	d="
M169.787628,312.601166 
	C169.661606,314.157867 169.429657,315.294342 168.677460,316.858459 
	C166.864746,322.680756 162.802979,323.120300 158.243774,323.050690 
	C155.122513,323.003021 151.319962,322.374817 148.995056,323.852203 
	C142.047150,328.267303 134.418472,327.259674 126.982681,328.002502 
	C126.659447,322.648956 126.336212,317.295441 126.411072,311.394653 
	C128.436844,310.561737 130.055573,310.201874 131.693893,310.004730 
	C136.118942,309.472168 141.254486,310.242371 144.811340,308.217590 
	C149.666855,305.453583 154.398071,305.070526 159.521896,304.965149 
	C160.980438,304.935181 162.444046,304.574341 163.882431,304.260284 
	C167.176041,303.541260 170.422729,302.513947 173.749634,302.066040 
	C177.336945,301.583099 181.883987,302.923584 184.449005,301.175140 
	C191.360260,296.464020 199.550568,297.911865 206.865967,295.285919 
	C210.560562,293.959717 215.573639,296.306580 219.993500,297.461975 
	C219.996414,304.402527 219.996414,310.873749 219.996414,317.345001 
	C219.465317,317.653229 218.934219,317.961456 218.403122,318.269714 
	C215.623276,311.720612 210.298492,313.160553 205.440063,312.980682 
	C198.624161,312.728394 191.813538,312.333466 185.000656,311.999542 
	C181.543900,310.774292 178.087143,309.549042 174.160416,307.993042 
	C173.131241,307.531525 172.572052,307.400787 172.012848,307.270050 
	C167.878372,307.313293 170.069489,310.359222 169.787628,312.601166 
z"/>
<path fill="#7C7B71" opacity="1.000000" stroke="none" 
	d="
M219.990570,296.992676 
	C215.573639,296.306580 210.560562,293.959717 206.865967,295.285919 
	C199.550568,297.911865 191.360260,296.464020 184.449005,301.175140 
	C181.883987,302.923584 177.336945,301.583099 173.749634,302.066040 
	C170.422729,302.513947 167.176041,303.541260 163.882431,304.260284 
	C162.444046,304.574341 160.980438,304.935181 159.521896,304.965149 
	C154.398071,305.070526 149.666855,305.453583 144.811340,308.217590 
	C141.254486,310.242371 136.118942,309.472168 131.693893,310.004730 
	C130.055573,310.201874 128.436844,310.561737 126.412941,310.927979 
	C126.011818,308.684937 125.981796,306.361053 126.007057,304.037811 
	C126.066864,298.535919 127.273384,297.057770 132.620102,297.060730 
	C139.421097,297.064514 145.576889,296.285156 152.092056,293.063660 
	C157.939880,290.172119 165.550415,290.699005 172.415924,290.078644 
	C175.488892,289.800964 178.316422,289.955353 179.920563,286.551270 
	C180.400284,285.533295 181.860138,284.564697 183.016830,284.346405 
	C189.605774,283.102661 196.233551,282.059265 202.858490,281.013367 
	C208.847427,280.067932 214.237442,281.748505 219.620300,285.431702 
	C219.993134,289.605988 219.991852,293.299316 219.990570,296.992676 
z"/>
<path fill="#757067" opacity="1.000000" stroke="none" 
	d="
M126.985634,328.470856 
	C134.418472,327.259674 142.047150,328.267303 148.995056,323.852203 
	C151.319962,322.374817 155.122513,323.003021 158.243774,323.050690 
	C162.802979,323.120300 166.864746,322.680756 168.461441,317.127258 
	C169.054764,317.793152 169.343872,318.617859 169.747437,319.980133 
	C169.891708,320.687561 169.921524,320.857361 169.951340,321.027191 
	C169.946594,324.410706 169.941849,327.794220 169.937958,332.072784 
	C169.893585,335.991058 169.848343,339.014282 169.608948,342.032104 
	C169.414795,342.026733 169.026382,342.021393 169.026382,342.021423 
	C166.265411,342.037994 163.504425,342.052399 160.743469,342.071838 
	C158.091675,342.090515 155.248383,341.496338 152.822784,342.247894 
	C144.380478,344.863739 136.082901,347.946655 127.378487,350.930725 
	C127.013985,343.652740 127.001282,336.295959 126.985634,328.470856 
z"/>
<path fill="#757067" opacity="1.000000" stroke="none" 
	d="
M219.993484,297.461975 
	C219.991852,293.299316 219.993134,289.605988 219.988586,285.450806 
	C219.992920,275.082062 220.003082,265.175140 220.011063,254.826172 
	C220.008865,254.384109 220.438751,254.264267 220.751709,254.416412 
	C221.158844,254.735733 221.287613,254.869629 221.502380,255.437119 
	C221.527176,279.611267 221.500519,303.318512 221.473877,327.025787 
	C217.664078,325.609497 213.809616,324.301575 210.053619,322.754639 
	C201.856750,319.378632 193.709976,315.881042 185.271698,312.216339 
	C191.813538,312.333466 198.624161,312.728394 205.440063,312.980682 
	C210.298492,313.160553 215.623276,311.720612 218.403122,318.269714 
	C218.934219,317.961456 219.465317,317.653229 219.996414,317.345001 
	C219.996414,310.873749 219.996414,304.402527 219.993484,297.461975 
z"/>
<path fill="#85867E" opacity="1.000000" stroke="none" 
	d="
M206.171234,249.076385 
	C206.596497,249.029358 207.258469,249.223770 208.103409,249.728683 
	C207.660233,249.798737 207.034103,249.558304 206.171234,249.076385 
z"/>
<path fill="#282324" opacity="1.000000" stroke="none" 
	d="
M237.977509,250.697815 
	C238.767075,250.550903 239.556641,250.403992 240.850021,250.445114 
	C241.547211,250.800980 241.762512,250.933136 241.999710,251.029602 
	C236.367264,256.468536 236.471634,258.120819 242.060928,264.669830 
	C243.860504,266.778381 244.988358,269.448212 246.528687,271.792145 
	C251.921005,279.997620 257.546478,288.057556 262.692780,296.413330 
	C264.919586,300.028870 266.277771,304.197601 267.869659,308.179382 
	C268.868347,310.677399 270.162170,311.657654 273.126251,311.323975 
	C276.936584,310.895050 280.851654,311.396088 284.806061,311.826294 
	C279.595673,313.362213 274.320648,314.668121 268.996399,315.726288 
	C266.803711,316.162109 264.505066,316.064972 261.372467,316.141602 
	C256.596039,316.197540 253.180008,316.268982 251.795654,311.111115 
	C250.808334,307.432465 248.359756,304.064453 246.195419,300.801849 
	C242.665131,295.480103 238.808395,290.375854 235.141434,285.143402 
	C233.182190,282.347778 230.720886,279.703735 229.559692,276.590851 
	C227.158371,270.153412 225.475327,263.448029 223.524628,256.945374 
	C225.363312,256.073853 226.672272,255.453430 228.149033,254.659225 
	C228.838715,253.905487 229.360596,253.325500 229.882477,252.745514 
	C230.719330,252.574921 231.556168,252.404327 233.048218,252.444595 
	C235.128113,252.002914 236.552811,251.350372 237.977509,250.697815 
z"/>
<path fill="#221E20" opacity="1.000000" stroke="none" 
	d="
M227.981232,254.832977 
	C226.672272,255.453430 225.363312,256.073853 223.524628,256.945374 
	C225.475327,263.448029 227.158371,270.153412 229.559692,276.590851 
	C230.720886,279.703735 233.182190,282.347778 235.141434,285.143402 
	C238.808395,290.375854 242.665131,295.480103 246.195419,300.801849 
	C248.359756,304.064453 250.808334,307.432465 251.795654,311.111115 
	C253.180008,316.268982 256.596039,316.197540 260.954651,316.098694 
	C258.348572,317.402527 255.360519,318.958160 252.190109,319.899475 
	C246.062973,321.718536 239.833008,323.191162 233.290863,324.966156 
	C229.413193,325.839874 225.890320,326.554840 221.920654,327.147766 
	C221.500519,303.318512 221.527176,279.611267 221.980957,255.425186 
	C224.265808,254.908569 226.123520,254.870773 227.981232,254.832977 
z"/>
<path fill="#282324" opacity="1.000000" stroke="none" 
	d="
M286.262177,336.650452 
	C285.686462,337.198425 285.336670,337.402130 284.826263,337.729584 
	C284.707794,329.558075 284.749939,321.262817 284.825195,312.535919 
	C285.560425,313.077576 286.865265,314.049164 286.868073,315.024475 
	C286.888580,322.117950 286.646881,329.212219 286.262177,336.650452 
z"/>
<path fill="#504C49" opacity="1.000000" stroke="none" 
	d="
M348.594757,193.152161 
	C348.745605,201.372437 348.548248,209.764877 348.213196,218.579163 
	C347.389801,217.347427 346.105469,215.686508 346.125580,214.041550 
	C346.199646,207.985199 346.663971,201.931107 347.096344,195.884399 
	C347.158997,195.008102 347.847626,194.176559 348.594757,193.152161 
z"/>
<path fill="#05A1C7" opacity="1.000000" stroke="none" 
	d="
M349.791443,181.407715 
	C350.258423,184.460999 350.534515,187.943542 350.952637,191.733658 
	C350.706268,192.382248 350.317841,192.723297 349.668884,193.108856 
	C349.472382,189.381256 349.536469,185.609116 349.791443,181.407715 
z"/>
<path fill="#46413F" opacity="1.000000" stroke="none" 
	d="
M269.767456,243.747253 
	C271.666199,242.994675 274.021240,242.334488 276.693512,241.774811 
	C275.872772,242.490845 274.734833,243.106400 273.297302,243.864105 
	C272.073090,243.950714 271.148438,243.895172 269.767456,243.747253 
z"/>
<path fill="#46413F" opacity="1.000000" stroke="none" 
	d="
M255.585312,246.177002 
	C256.837189,245.952026 258.089081,245.727036 259.648193,245.587372 
	C258.544159,246.424515 257.132904,247.176346 255.394501,247.932617 
	C255.067383,247.937073 255.051071,247.537689 255.216827,247.113495 
	C255.450165,246.518555 255.517731,246.347778 255.585312,246.177002 
z"/>
<path fill="#46413F" opacity="1.000000" stroke="none" 
	d="
M263.642761,244.207214 
	C264.934174,243.972961 266.225586,243.738724 267.771729,243.613510 
	C266.558929,244.368759 265.091431,245.014969 263.504608,245.235229 
	C263.471130,244.608582 263.556946,244.407898 263.642761,244.207214 
z"/>
<path fill="#03E3E6" opacity="1.000000" stroke="none" 
	d="
M263.291077,244.185425 
	C263.556946,244.407898 263.471130,244.608582 263.222839,245.093292 
	C262.603851,245.297668 262.147278,245.217972 261.361877,245.024597 
	C261.668457,244.661804 262.303925,244.412704 263.291077,244.185425 
z"/>
<path fill="#898B83" opacity="1.000000" stroke="none" 
	d="
M167.709076,231.745239 
	C169.437622,233.094925 170.858475,234.273056 172.454498,235.121796 
	C174.622543,236.274734 176.924576,237.175705 179.417679,238.471191 
	C175.920044,240.453354 172.210907,242.300842 167.877762,241.052780 
	C167.436523,240.925674 166.695847,240.950211 166.432007,241.226746 
	C161.613541,246.277115 154.615051,244.594696 148.845184,246.828781 
	C145.151581,248.258926 140.597107,247.286285 136.640259,248.255280 
	C129.532440,249.995956 121.737946,250.559875 115.408875,252.952103 
	C108.619026,255.518509 101.016907,254.484192 94.539215,259.053162 
	C91.138794,261.451630 84.891457,259.813812 79.462067,259.997559 
	C78.669456,255.968918 78.344513,251.941422 78.376419,247.380768 
	C81.464828,245.898636 84.151382,244.354187 86.938728,244.143570 
	C90.880577,243.845734 94.339897,243.614807 97.027672,240.031097 
	C97.993584,238.743195 100.521126,238.245407 102.394699,238.088577 
	C108.821465,237.550583 115.296600,237.545303 121.709251,236.899612 
	C125.947739,236.472855 130.187683,235.565109 134.288513,234.389618 
	C139.665146,232.848419 144.788971,230.207642 150.236374,229.191101 
	C155.892349,228.135666 162.296722,230.495682 166.842850,225.009216 
	C167.055054,227.148453 167.267258,229.287704 167.709076,231.745239 
z"/>
<path fill="#8C8F8A" opacity="1.000000" stroke="none" 
	d="
M166.926636,224.592560 
	C162.296722,230.495682 155.892349,228.135666 150.236374,229.191101 
	C144.788971,230.207642 139.665146,232.848419 134.288513,234.389618 
	C130.187683,235.565109 125.947739,236.472855 121.709251,236.899612 
	C115.296600,237.545303 108.821465,237.550583 102.394699,238.088577 
	C100.521126,238.245407 97.993584,238.743195 97.027672,240.031097 
	C94.339897,243.614807 90.880577,243.845734 86.938728,244.143570 
	C84.151382,244.354187 81.464828,245.898636 78.377167,246.929169 
	C78.014320,244.017670 77.971741,241.024185 78.008858,238.031677 
	C78.071930,232.946198 80.551987,230.656647 85.409630,229.910919 
	C89.374489,229.302261 93.148331,227.485168 97.110207,226.812622 
	C102.469032,225.902939 107.932816,225.625824 113.338524,224.969818 
	C115.099495,224.756119 117.535614,224.794464 118.431229,223.704987 
	C121.829674,219.570923 126.262894,220.209564 130.733292,219.912460 
	C136.800659,219.509216 142.845779,218.625412 148.860504,217.690659 
	C150.176651,217.486115 151.614746,216.437790 152.498520,215.366943 
	C155.963959,211.167923 157.389587,210.940994 161.729706,214.167267 
	C162.752457,214.927551 164.026749,215.349457 165.545746,215.930542 
	C166.274231,218.681335 166.642334,221.428619 166.926636,224.592560 
z"/>
<path fill="#979C97" opacity="1.000000" stroke="none" 
	d="
M164.905457,191.969330 
	C162.835205,190.230942 160.205765,188.560867 164.556549,186.480499 
	C164.919678,188.574982 164.912567,190.272156 164.905457,191.969330 
z"/>
<path fill="#8C8F8A" opacity="1.000000" stroke="none" 
	d="
M165.014954,192.139923 
	C164.912567,190.272156 164.919678,188.574982 164.895813,186.454941 
	C164.879013,185.572708 164.893188,185.113327 164.872070,184.310394 
	C164.897568,182.815948 164.958374,181.665085 165.050476,180.071869 
	C165.342392,183.765671 165.602997,187.901855 165.754379,192.479843 
	C165.448227,192.737854 165.274658,192.534134 165.014954,192.139923 
z"/>
<path fill="#57524E" opacity="1.000000" stroke="none" 
	d="
M285.365143,238.868301 
	C285.622742,233.060425 285.880371,227.252533 286.019226,221.074280 
	C285.999146,216.169998 286.097870,211.636063 286.174561,206.235596 
	C286.052277,203.819412 285.952026,202.269775 285.851746,200.720123 
	C286.143066,194.293472 286.378754,187.863602 286.752686,181.441757 
	C286.905701,178.812958 287.357361,176.201523 287.800537,173.226929 
	C288.269714,177.614883 288.933868,182.361343 288.885803,187.100601 
	C288.787079,196.841583 288.359924,206.580887 287.956940,216.316284 
	C287.807159,219.933945 287.346649,223.538742 287.043365,227.576385 
	C286.870026,231.432220 286.681183,234.861084 286.103394,238.589905 
	C285.714508,238.889893 285.365143,238.868301 285.365143,238.868301 
z"/>
<path fill="#03E3E6" opacity="1.000000" stroke="none" 
	d="
M284.945282,238.894226 
	C285.365143,238.868301 285.714508,238.889893 285.885315,238.927734 
	C284.599091,239.636658 283.142029,240.307739 281.188599,240.882568 
	C280.434174,240.667145 280.210022,240.501968 280.019745,240.290756 
	C281.521637,239.833893 283.023529,239.377029 284.945282,238.894226 
z"/>
<path fill="#46413F" opacity="1.000000" stroke="none" 
	d="
M279.853088,240.511002 
	C280.210022,240.501968 280.434174,240.667145 280.821625,240.950974 
	C280.340179,241.355835 279.729340,241.596008 278.779785,241.817993 
	C278.856232,241.443619 279.271332,241.087433 279.853088,240.511002 
z"/>
<path fill="#898B83" opacity="1.000000" stroke="none" 
	d="
M181.053131,239.220032 
	C181.546906,239.144623 182.096024,239.325745 182.819794,239.748108 
	C182.365799,239.818420 181.737122,239.647507 181.053131,239.220032 
z"/>
<path fill="#46413F" opacity="1.000000" stroke="none" 
	d="
M242.304016,251.002792 
	C241.762512,250.933136 241.547211,250.800980 241.253738,250.472473 
	C242.259750,249.763092 243.365845,249.214371 244.606049,249.044678 
	C244.436646,249.931793 244.133133,250.439880 243.829620,250.947968 
	C243.422516,250.957306 243.015427,250.966644 242.304016,251.002792 
z"/>
<path fill="#282324" opacity="1.000000" stroke="none" 
	d="
M244.224243,250.962830 
	C244.133133,250.439880 244.436646,249.931793 244.856689,249.153839 
	C245.602158,248.757874 246.231094,248.631775 247.542847,248.712524 
	C248.476456,248.993286 248.727249,249.067169 248.978027,249.141068 
	C247.524979,249.753281 246.071915,250.365494 244.224243,250.962830 
z"/>
<path fill="#46413F" opacity="1.000000" stroke="none" 
	d="
M249.286102,249.056549 
	C248.727249,249.067169 248.476456,248.993286 247.860016,248.778091 
	C248.478973,248.187897 249.463623,247.738998 251.050140,247.189758 
	C252.082626,247.151627 252.513229,247.213837 252.943817,247.276062 
	C251.827271,247.841385 250.710739,248.406708 249.286102,249.056549 
z"/>
<path fill="#03E3E6" opacity="1.000000" stroke="none" 
	d="
M253.288971,247.173782 
	C252.513229,247.213837 252.082626,247.151627 251.332123,247.012924 
	C252.263779,246.648178 253.515366,246.359940 255.176132,246.124359 
	C255.517731,246.347778 255.450165,246.518555 255.223526,246.913742 
	C254.587677,247.115952 254.110886,247.093735 253.288971,247.173782 
z"/>
<path fill="#4D4845" opacity="1.000000" stroke="none" 
	d="
M345.168091,296.248657 
	C343.445221,294.704590 341.277252,293.383057 340.020355,291.464600 
	C336.325470,285.824860 333.032990,279.923187 329.507599,274.170258 
	C324.610901,266.179443 319.576141,258.272614 314.729218,250.252014 
	C309.894318,242.251328 305.285370,234.114014 300.441559,226.118851 
	C298.324554,222.624527 295.555878,219.499985 293.663055,215.902405 
	C292.019928,212.779419 290.434265,209.285263 290.167480,205.850708 
	C289.628845,198.916565 290.003113,191.911499 290.004639,184.466873 
	C290.529602,184.381927 291.525513,184.798874 291.501404,185.144775 
	C291.070374,191.333633 296.243652,194.108017 299.134918,198.349152 
	C303.684631,205.022995 307.363831,212.284180 311.559113,219.207306 
	C316.829468,227.904556 322.278900,236.493088 327.587219,245.167603 
	C329.469849,248.244064 331.172455,251.431046 332.944641,254.574692 
	C336.789520,261.395020 340.594574,268.238007 344.478058,275.036224 
	C346.845520,279.180542 349.514191,283.164520 351.671906,287.411407 
	C352.585693,289.209930 352.535034,291.498444 352.893921,294.010925 
	C352.490448,294.486938 352.115753,294.516266 351.291138,294.255981 
	C350.231537,294.283508 349.621857,294.600647 349.012177,294.917786 
	C348.698181,295.044250 348.384186,295.170746 347.469147,295.231415 
	C346.257904,295.528320 345.647736,295.891052 345.037537,296.253784 
	C345.037537,296.253784 345.139252,296.198425 345.168091,296.248657 
z"/>
<path fill="#02B6DC" opacity="1.000000" stroke="none" 
	d="
M172.071686,307.494080 
	C172.572052,307.400787 173.131241,307.531525 173.793823,307.942139 
	C173.308319,308.054077 172.719421,307.886108 172.071686,307.494080 
z"/>
<path fill="#07C3D3" opacity="1.000000" stroke="none" 
	d="
M398.739746,212.620789 
	C398.188721,213.124207 397.446686,213.473114 396.394531,213.729233 
	C396.905823,213.246384 397.727295,212.856323 398.739746,212.620789 
z"/>
<path fill="#78766C" opacity="1.000000" stroke="none" 
	d="
M169.021179,342.479462 
	C169.026382,342.021393 169.414795,342.026733 169.838806,342.091431 
	C170.262802,342.156158 170.725555,342.259735 170.725555,342.259735 
	C170.695786,342.941376 170.666000,343.623016 170.703522,344.638885 
	C170.629868,348.056946 170.488922,351.140747 170.183685,354.572754 
	C169.684921,350.926453 169.350464,346.931976 169.021179,342.479462 
z"/>
<path fill="#05A1C7" opacity="1.000000" stroke="none" 
	d="
M170.989258,341.938538 
	C170.725555,342.259735 170.262802,342.156158 170.032959,342.096832 
	C169.848343,339.014282 169.893585,335.991058 170.023407,332.529846 
	C170.369553,332.228333 170.591629,332.412415 170.902344,332.821503 
	C171.104614,335.871674 171.178772,338.744507 170.989258,341.938538 
z"/>
<path fill="#04BDE2" opacity="1.000000" stroke="none" 
	d="
M170.058990,320.915771 
	C169.921524,320.857361 169.891708,320.687561 169.914062,320.264587 
	C170.251251,320.232819 170.318069,320.497131 170.058990,320.915771 
z"/>
<path fill="#05A1C7" opacity="1.000000" stroke="none" 
	d="
M351.870148,154.903656 
	C351.432648,153.095245 351.271881,151.022369 351.201050,148.567627 
	C351.837921,148.909683 352.384888,149.633575 352.949097,150.672791 
	C352.693207,152.205139 352.420044,153.422150 351.870148,154.903656 
z"/>
<path fill="#05A1C7" opacity="1.000000" stroke="none" 
	d="
M350.543518,171.917816 
	C350.402283,170.879410 350.540039,169.717667 350.908081,168.282318 
	C351.033112,169.270630 350.927826,170.532532 350.543518,171.917816 
z"/>
<path fill="#05A1C7" opacity="1.000000" stroke="none" 
	d="
M351.315186,163.907593 
	C351.175415,163.844589 351.137390,163.671249 351.177032,163.243027 
	C351.495331,163.224289 351.549408,163.493988 351.315186,163.907593 
z"/>
<path fill="#504C49" opacity="1.000000" stroke="none" 
	d="
M349.300232,294.951538 
	C349.621857,294.600647 350.231537,294.283508 351.017487,294.184235 
	C350.658600,294.596527 350.123444,294.790955 349.300232,294.951538 
z"/>
<path fill="#46413F" opacity="1.000000" stroke="none" 
	d="
M345.411499,296.267334 
	C345.647736,295.891052 346.257904,295.528320 347.232788,295.123169 
	C346.993439,295.480774 346.389435,295.880829 345.411499,296.267334 
z"/>
<path fill="#02ACD5" opacity="1.000000" stroke="none" 
	d="
M183.283813,373.373535 
	C183.756332,373.618744 184.005936,373.919403 184.255554,374.220062 
	C183.856888,374.330566 183.458237,374.441101 183.059570,374.551605 
	C183.060013,374.177429 183.060455,373.803223 183.283813,373.373535 
z"/>
<path fill="#04BDE2" opacity="1.000000" stroke="none" 
	d="
M231.097992,218.825256 
	C230.631561,218.861008 230.165146,218.896759 229.347992,218.927216 
	C229.754623,218.292862 230.511963,217.663834 231.591431,217.007355 
	C231.901642,217.169189 231.889709,217.358459 231.712921,217.930237 
	C231.374176,218.462585 231.224136,218.633438 231.097992,218.825256 
z"/>
<path fill="#05F2E7" opacity="1.000000" stroke="none" 
	d="
M285.494995,200.971634 
	C285.952026,202.269775 286.052277,203.819412 285.997375,205.814789 
	C285.607574,204.581375 285.372894,202.902267 285.494995,200.971634 
z"/>
<path fill="#02B6DC" opacity="1.000000" stroke="none" 
	d="
M231.285370,218.851349 
	C231.224136,218.633438 231.374176,218.462585 231.684235,218.213257 
	C231.820389,218.113800 231.856842,218.502350 231.853882,218.696259 
	C231.850922,218.890167 231.472763,218.877411 231.285370,218.851349 
z"/>
<path fill="#02ACD5" opacity="1.000000" stroke="none" 
	d="
M216.045868,222.130188 
	C213.238052,222.678955 210.430237,223.227707 207.270508,223.439026 
	C203.128174,217.752335 199.573044,212.215195 195.488998,207.100357 
	C190.125870,200.383560 183.915009,194.310394 178.901169,187.359940 
	C175.705490,182.929901 172.693298,180.191757 167.106216,181.925354 
	C167.072327,175.261795 167.038452,168.598251 167.014038,161.465973 
	C170.162918,162.986969 173.945282,164.406540 176.314926,167.078827 
	C182.199112,173.714539 187.266586,181.066650 192.982666,187.861328 
	C199.446793,195.545273 206.346451,202.861496 212.880417,210.488647 
	C215.491882,213.537079 217.632385,216.988968 219.991501,220.628387 
	C219.560989,221.055511 219.126251,221.111465 218.076096,221.200714 
	C216.989075,221.532730 216.517471,221.831451 216.045868,222.130188 
z"/>
<path fill="#03E3E6" opacity="1.000000" stroke="none" 
	d="
M225.751648,219.217560 
	C225.510849,219.615173 224.978119,220.013489 224.253082,220.284851 
	C224.527084,219.844666 224.993393,219.531464 225.751648,219.217560 
z"/>
<path fill="#05A1C7" opacity="1.000000" stroke="none" 
	d="
M167.086090,182.358643 
	C172.693298,180.191757 175.705490,182.929901 178.901169,187.359940 
	C183.915009,194.310394 190.125870,200.383560 195.488998,207.100357 
	C199.573044,212.215195 203.128174,217.752335 206.929596,223.441055 
	C203.556000,224.519485 200.171402,225.258453 196.389435,225.999207 
	C193.248657,223.423782 190.289963,221.036011 187.814545,218.222946 
	C184.469986,214.422195 181.681168,210.128296 178.292374,206.372147 
	C176.380234,204.252731 173.974854,202.062851 171.367874,201.227951 
	C168.654297,200.358887 168.063400,199.133240 167.967941,196.699615 
	C167.785919,192.059067 167.379333,187.427338 167.086090,182.358643 
z"/>
<path fill="#46413F" opacity="1.000000" stroke="none" 
	d="
M228.149033,254.659210 
	C226.123520,254.870773 224.265808,254.908569 221.929535,254.958298 
	C221.287613,254.869629 221.158844,254.735733 220.970337,254.461060 
	C223.646133,253.764832 226.416229,253.176117 229.534424,252.666458 
	C229.360596,253.325500 228.838715,253.905487 228.149033,254.659210 
z"/>
<path fill="#46413F" opacity="1.000000" stroke="none" 
	d="
M237.659637,250.599670 
	C236.552811,251.350372 235.128113,252.002914 233.477554,252.499908 
	C234.615036,251.730072 235.978394,251.115784 237.659637,250.599670 
z"/>
<path fill="#03E3E6" opacity="1.000000" stroke="none" 
	d="
M216.236633,222.262177 
	C216.517471,221.831451 216.989075,221.532730 217.750458,221.246002 
	C217.502609,221.636719 216.964996,222.015442 216.236633,222.262177 
z"/>
</svg>